<?xml version="1.0" encoding="UTF-8"?>
<svg xmlns="http://www.w3.org/2000/svg" id="Layer_1" data-name="Layer 1" viewBox="0 0 99 99">
  <defs>
    <style>.cls-1{fill:#fdab76;}</style>
  </defs>
  <path class="cls-1" d="M98.32,43.62l-.8-.69q-8.3-7.09-16.59-14.21Q66.17,16,51.42,3.36c-2.09-1.8-2-1.54-3.84,0L14.07,32.17q-6.49,5.59-13,11.22C0,44.33-.14,44.86.44,45.52s1.15.52,2.22-.39c.87-.75,1.75-1.49,2.59-2.27a2.15,2.15,0,0,1,1.63-.62c1.63,0,3.26,0,4.89,0,1.42,0,1.24-.17,1.24,1.2q0,25.79,0,51.59c0,1.55.29,1.84,1.82,1.84H84.17c1.52,0,1.82-.3,1.82-1.86V62.72c0-6.52,0-13,0-19.56,0-.69.12-.95.88-.92,1.85.06,3.7,0,5.56,0a1.76,1.76,0,0,1,1.29.48c1,.91,2.07,1.8,3.12,2.69.6.5,1.23.61,1.76,0A1.16,1.16,0,0,0,98.32,43.62Zm-28-4.47c0,.59-.17.76-.76.76-5.46,0-10.93,0-16.39,0a2.17,2.17,0,0,1-.4-.1L70.32,24.73v6C70.32,33.52,70.31,36.34,70.34,39.15ZM65.91,67.38c0,.57-.1.76-.72.75q-6.86,0-13.7,0c-.73,0-.81-.26-.81-.88,0-4,0-8,0-12.07s0-8,0-12.08c0-.65.16-.86.84-.86q6.79,0,13.61,0c.63,0,.79.18.79.81Q65.89,55.22,65.91,67.38ZM50.69,38.51c0-5,0-9.79,0-14.58,0-.75.48-.6.9-.6H68.34Zm0-32.68,17.44,15c-.26.29-.56.16-.82.16-5.23,0-10.47,0-15.71,0-.76,0-.93-.2-.92-.94C50.71,15.39,50.69,10.73,50.69,5.83Zm.76,64.59q6.88,0,13.78,0c.56,0,.7.16.69.69s-.06.81-.71.79c-2.3,0-4.6,0-6.9,0s-4.59,0-6.89,0c-.6,0-.74-.18-.75-.76S50.89,70.42,51.45,70.42Zm-.77,4.48c0-.49.13-.66.64-.66q7,0,14,0c.45,0,.61.12.6.58,0,1.34,0,2.69,0,4,0,.55-.23.6-.68.6-2.34,0-4.67,0-7,0s-4.47,0-6.7,0c-.64,0-.9-.1-.86-.82C50.74,77.39,50.71,76.14,50.68,74.9ZM33.08,43.06c0-.62.14-.82.78-.82q6.81,0,13.61,0c.67,0,.87.18.86.85,0,4,0,8.06,0,12.08s0,8,0,12.08c0,.71-.16.89-.89.89q-6.75-.06-13.51,0c-.65,0-.86-.14-.86-.83Q33.12,55.18,33.08,43.06Zm15.24-5a1.72,1.72,0,0,1-.11.32L30.93,23.56l.05-.23h1.41c5,0,10.09,0,15.14,0,.53,0,.81,0,.8.69C48.31,28.71,48.32,33.41,48.32,38.1Zm0-32.27V20.2c0,.42.08.79-.59.79-5.59,0-11.18,0-17,0ZM28.67,25.48c0-.18,0-.36,0-.73L46.33,39.89H44.68c-5,0-10,0-15,0-.71,0-1-.11-1-.92C28.69,34.49,28.67,30,28.67,25.48ZM9.14,39.89c-.05,0-.1,0-.27-.14l17.48-15v1.1c0,4.41,0,8.82,0,13.23,0,.53,0,.88-.72.87C20.13,39.88,14.63,39.89,9.14,39.89Zm20.77,54.7q-6.85,0-13.7,0c-.7,0-.84-.22-.84-.87,0-3.73,0-7.47,0-11.21s0-7.47,0-11.21c0-.73.21-.89.91-.88q6.79,0,13.6,0c.76,0,.88.24.88.92q0,11.2,0,22.42C30.76,94.43,30.57,94.59,29.91,94.59Zm-.16-26.46q-6.75,0-13.52,0c-.65,0-.86-.14-.86-.83q0-12.09,0-24.17c0-.74.22-.89.92-.89q6.8,0,13.61,0c.67,0,.86.17.86.85,0,4,0,8.06,0,12.08s0,8,0,12C30.77,68,30.52,68.14,29.75,68.13Zm3.32,18c.06-2.49,0-5,0-7.48s0-4.92,0-7.38c0-.62.09-.88.81-.87q6.86,0,13.7,0c.61,0,.75.18.74.75,0,2.52,0,5,0,7.57,0,.64-.23.72-.77.71-2.11,0-4.22,0-6.33,0-1.27,0-1.62.36-1.63,1.66,0,1.72,0,3.45,0,5.17,0,.59-.16.77-.75.76Q36.43,87,34,87C33.29,87.05,33.05,86.9,33.07,86.15Zm15.26,4.09c0,1.21,0,2.43,0,3.64,0,.52-.11.71-.67.71-4.63,0-9.26,0-13.89,0-.45,0-.69-.06-.68-.61q.06-2,0-4c0-.55.23-.61.69-.61h7c2.23,0,4.47,0,6.7,0C48.21,89.31,48.36,89.55,48.33,90.24ZM42.68,87c-.66,0-.8-.19-.78-.8.05-1.24,0-2.49,0-3.73,0-.51.09-.74.67-.74,4.66,0,9.32,0,14,0,.52,0,.66.18.65.67,0,1.31,0,2.61,0,3.92,0,.6-.25.67-.74.67-2.33,0-4.66,0-7,0h0C47.21,87,44.94,87,42.68,87Zm23.23,6.89c0,.47-.09.67-.62.67q-6.95,0-13.9,0c-.53,0-.64-.18-.63-.66,0-1.28,0-2.56,0-3.84,0-.59.19-.75.76-.75,2.3,0,4.61,0,6.91,0h0c2.3,0,4.6,0,6.9,0,.45,0,.6.08.59.56C65.88,91.24,65.89,92.58,65.91,93.92ZM60.33,87c-.54,0-.73-.15-.71-.7,0-1.28,0-2.56,0-3.84,0-.62.24-.73.79-.72,2.26,0,4.53,0,6.8,0s4.54,0,6.81,0c.59,0,.77.17.75.76,0,1.24,0,2.49,0,3.74,0,.56-.11.78-.73.77Q67.19,87,60.33,87ZM74.76,71.15c0,.39.06.77-.55.75-.89,0-1.78,0-2.67,0s-1.79,0-2.68,0c-.54,0-.64-.24-.62-.69s0-.81.62-.79c1.79,0,3.57,0,5.35,0C74.84,70.4,74.76,70.76,74.76,71.15Zm8.11,23.44c-2.3,0-4.6,0-6.9,0s-4.54,0-6.81,0c-.62,0-.82-.16-.8-.8,0-1.24,0-2.49,0-3.73,0-.52.11-.73.67-.72q7,0,14,0c.47,0,.61.14.61.6,0,1.31,0,2.62,0,3.93C83.66,94.47,83.44,94.6,82.87,94.59Zm.77-8.16c0,.47-.17.61-.62.6-.89,0-1.78,0-2.68,0h0c-.83,0-1.65,0-2.48,0-.49,0-.67-.13-.66-.64q0-2,0-4c0-.47.17-.61.61-.6,1.72,0,3.45,0,5.17,0,.49,0,.67.14.66.65C83.62,83.75,83.62,85.09,83.64,86.43Zm-.71-7c-2.33,0-4.66,0-7,0s-4.59,0-6.89,0c-.53,0-.7-.14-.68-.69,0-1.3,0-2.61,0-3.92,0-.45.13-.6.59-.6q7,0,14.07,0c.57,0,.61.28.6.71,0,1.28,0,2.56,0,3.83C83.66,79.34,83.45,79.45,82.93,79.45ZM77.12,67.26c0-.41.1-.58.53-.58,1.81,0,3.63,0,5.44,0,.44,0,.55.17.54.57,0,1.37,0,2.74,0,4.11,0,.43-.19.55-.58.54-.92,0-1.84,0-2.77,0s-1.66,0-2.48,0c-.45,0-.71-.07-.7-.62C77.15,69.93,77.14,68.59,77.12,67.26Zm6.52-3.78c0,.68-.2.86-.86.85-2.11,0-4.21,0-6.32,0-1.32,0-1.69.39-1.71,1.72,0,2.09,0,2.09-2.15,2.09-1,0-2.11-.06-3.16,0S68.2,68,68.22,67c.07-3.92,0-7.85,0-11.78s0-8,0-12.07c0-.65.15-.87.84-.87q6.86,0,13.7,0c.65,0,.88.15.87.84Q83.61,53.28,83.64,63.48Zm6-23.59c-5.33,0-10.67,0-16,0-.76,0-1-.21-1-.95,0-4.66,0-9.32,0-14.23l17.41,15C90,40,89.77,39.89,89.61,39.89Z"></path>
</svg>
