<?xml version="1.0" encoding="UTF-8"?>
<svg xmlns="http://www.w3.org/2000/svg" id="Layer_1" data-name="Layer 1" viewBox="0 0 99 99">
  <defs>
    <style>.cls-1{fill:#fdab76;}</style>
  </defs>
  <path class="cls-1" d="M47.24,94q-17.39,0-34.78,0A13.78,13.78,0,0,1,7,93.26,10.52,10.52,0,0,1,.42,83.49v-68a10.49,10.49,0,0,1,20.79-2.08,9.39,9.39,0,0,1,.17,1.4c0,.26.09.37.35.34s.44,0,.66,0H96.76a1.82,1.82,0,0,1,1.37.39,1.55,1.55,0,0,1,.45,1.18q0,3.6,0,7.2,0,21.34,0,42.69a2.55,2.55,0,0,1-.26,1.15Q92.23,80.3,86.16,92.83A1.87,1.87,0,0,1,84.26,94Q65.75,94,47.24,94Zm47.48-25.7a1.77,1.77,0,0,0-.17.12L80,81.27c-.28.24-.24.39-.08.66l4.32,7.18c.09.15.13.34.33.43l.26-.53q2.86-5.9,5.72-11.79c1.43-2.93,2.84-5.87,4.26-8.81,0,0,.09-.11,0-.17ZM82.13,91.15l-5.24-8.74c-.7-1.15-.63-1.64.39-2.53q9-7.95,18-15.9a1.09,1.09,0,0,0,.43-.92q0-22.18,0-44.38c0-.52-.09-.69-.67-.69q-36.43,0-72.89,0c-.76,0-.76,0-.76.74V83.46a10.38,10.38,0,0,1-2,6.22,12.93,12.93,0,0,1-1.27,1.47ZM18.56,76.28V15.47a7.41,7.41,0,0,0-.31-2.2,7.65,7.65,0,0,0-15,2.21v60.8A10.66,10.66,0,0,1,18.56,76.28Zm0,7.29a7.65,7.65,0,1,0-7.74,7.61A7.64,7.64,0,0,0,18.56,83.57Z"></path>
  <path class="cls-1" d="M59.47,73.33H41.2c-1.3,0-1.77-.47-1.77-1.78,0-6.39,0-12.79,0-19.19,0-.45-.09-.6-.58-.59-2.35,0-4.69,0-7,0a1.5,1.5,0,0,1-1.64-1,1.48,1.48,0,0,1,.67-1.74L54.37,30a1.57,1.57,0,0,1,2.45,0L80.39,49.1A1.44,1.44,0,0,1,81,50.91a1.47,1.47,0,0,1-1.49.87c-2.4,0-4.8,0-7.2,0-.43,0-.53.12-.53.54q0,8.82,0,17.66c0,.41.1.51.51.51,1.89,0,3.78,0,5.67,0a1.42,1.42,0,0,1,1.58,1.43,1.36,1.36,0,0,1-1.23,1.41,5.06,5.06,0,0,1-.55,0ZM35.55,48.93h5.22a1.41,1.41,0,0,1,1.51,1.5V51q0,9.45,0,18.91c0,.47.09.59.58.59q12.74,0,25.46,0c.48,0,.62-.1.62-.61,0-6.43,0-12.86,0-19.29a1.44,1.44,0,0,1,1.63-1.65h5.08l-.31-.27Q65.66,40.82,56,33c-.32-.27-.49-.24-.8,0q-7.72,6.3-15.47,12.57Z"></path>
  <path class="cls-1" d="M85.38,29.41c1.37,0,2.73,0,4.09,0a1.43,1.43,0,1,1,0,2.84H81.27A1.44,1.44,0,0,1,79.7,30.8a1.4,1.4,0,0,1,1.54-1.39c1.38,0,2.76,0,4.14,0Z"></path>
  <path class="cls-1" d="M85.39,39H81.25a1.43,1.43,0,1,1,0-2.84h8.23a1.43,1.43,0,1,1,0,2.84Z"></path>
  <path class="cls-1" d="M37.73,71.93a1.43,1.43,0,0,1-2.85,0,1.43,1.43,0,1,1,2.85,0Z"></path>
  <path class="cls-1" d="M40.86,83.54a1.43,1.43,0,1,1,0-2.85,1.43,1.43,0,0,1,0,2.85Z"></path>
  <path class="cls-1" d="M40.86,77.86a1.4,1.4,0,0,1-1.43-1.39A1.41,1.41,0,0,1,40.81,75a1.42,1.42,0,1,1,0,2.84Z"></path>
  <path class="cls-1" d="M36.9,32.25a1.45,1.45,0,0,1-1.45-1.39,1.42,1.42,0,1,1,2.84-.05A1.42,1.42,0,0,1,36.9,32.25Z"></path>
  <path class="cls-1" d="M42.54,29.41A1.37,1.37,0,0,1,44,30.8a1.41,1.41,0,0,1-1.44,1.45,1.45,1.45,0,0,1-1.4-1.44A1.41,1.41,0,0,1,42.54,29.41Z"></path>
  <path class="cls-1" d="M70.33,35.31a1.43,1.43,0,0,1,.06,2.85,1.43,1.43,0,1,1-.06-2.85Z"></path>
  <path class="cls-1" d="M30.64,73.33a1.43,1.43,0,0,1,0-2.85,1.43,1.43,0,1,1,0,2.85Z"></path>
  <path class="cls-1" d="M32.62,30.83a1.43,1.43,0,0,1-1.42,1.42,1.45,1.45,0,0,1-1.43-1.47,1.41,1.41,0,0,1,1.46-1.37A1.39,1.39,0,0,1,32.62,30.83Z"></path>
  <path class="cls-1" d="M49.63,30.8a1.4,1.4,0,0,1-1.38,1.45,1.44,1.44,0,0,1-1.46-1.44,1.41,1.41,0,0,1,1.42-1.4A1.37,1.37,0,0,1,49.63,30.8Z"></path>
  <path class="cls-1" d="M71.76,31.06a1.4,1.4,0,0,1-1.4,1.42,1.42,1.42,0,1,1,0-2.84A1.39,1.39,0,0,1,71.76,31.06Z"></path>
  <path class="cls-1" d="M71.76,76.45a1.4,1.4,0,0,1-1.41,1.41,1.42,1.42,0,1,1,0-2.84A1.4,1.4,0,0,1,71.76,76.45Z"></path>
  <path class="cls-1" d="M71.76,82.12a1.38,1.38,0,0,1-1.4,1.41,1.41,1.41,0,0,1-1.44-1.39,1.44,1.44,0,0,1,1.44-1.45A1.4,1.4,0,0,1,71.76,82.12Z"></path>
  <path class="cls-1" d="M26.39,71.9A1.43,1.43,0,0,1,25,73.33a1.42,1.42,0,0,1-1.44-1.39A1.44,1.44,0,0,1,25,70.47,1.45,1.45,0,0,1,26.39,71.9Z"></path>
  <path class="cls-1" d="M27,30.84a1.43,1.43,0,0,1-1.43,1.41,1.45,1.45,0,0,1-1.42-1.42,1.42,1.42,0,0,1,1.46-1.42A1.39,1.39,0,0,1,27,30.84Z"></path>
  <path class="cls-1" d="M7.22,32.27c0-2.15,0-4.29,0-6.43A1.43,1.43,0,0,1,10,25.25a2.51,2.51,0,0,1,.1.86V36.46c0,.8,0,1.6,0,2.4a1.34,1.34,0,0,1-1.37,1.27,1.39,1.39,0,0,1-1.44-1.22,4.87,4.87,0,0,1,0-.54Z"></path>
  <path class="cls-1" d="M10.08,16.62c0,.73,0,1.45,0,2.18a1.44,1.44,0,1,1-2.86,0c0-1.45,0-2.91,0-4.36a1.44,1.44,0,1,1,2.86,0v2.17Z"></path>
  <path class="cls-1" d="M55.65,48.93h7.57c1.24,0,1.75.51,1.75,1.75V65.94c0,1.2-.52,1.71-1.73,1.71H47.92c-1.16,0-1.69-.53-1.69-1.7q0-5.5,0-11A1.42,1.42,0,0,1,49,54.49a2.72,2.72,0,0,1,0,.64c0,3.06,0,6.11,0,9.16,0,.39.08.52.5.52q6,0,12,0c.38,0,.53-.06.52-.5q0-6,0-12c0-.43-.13-.5-.52-.5H47.82a1.44,1.44,0,1,1,0-2.86h7.85Z"></path>
</svg>
