<?xml version="1.0" encoding="UTF-8"?>
<svg xmlns="http://www.w3.org/2000/svg" id="Layer_1" data-name="Layer 1" viewBox="0 0 99 99">
  <defs>
    <style>.cls-1{fill:#fdab76;}</style>
  </defs>
  <path class="cls-1" d="M98.42,75.68V72.36a3.39,3.39,0,0,0,0-1.1s0-.09,0-.13,0-.1,0-.15v0a1.74,1.74,0,0,0,0-.51.77.77,0,0,0-.07-.26.44.44,0,0,0,.09-.27v-.06c0-2.79,0-5.59,0-8.39a1.59,1.59,0,0,0-.36-1.14,1.45,1.45,0,0,0-1.15-.48H71.46c-.14,0-.26,0-.25-.22.06-.95-.1-1.9-.06-2.84a5.52,5.52,0,0,0,0-.91,1.44,1.44,0,0,0-.86-1.16,8.3,8.3,0,0,0-2.17-.09H29.81a1.75,1.75,0,0,0-1.29.34A1.32,1.32,0,0,0,28,56c.08,1.11,0,2.21.05,3.32,0,.43-.08.54-.46.54H1.92c-.32,0-.73,0-.87.25a2.58,2.58,0,0,0-.5,1.49c0,1.56,0,3.12,0,4.67q0,14,0,28c0,1.12.5,1.7,1.46,1.7l11,0,13.43,0H96.79c1.16,0,1.66-.58,1.66-1.94V77C98.45,76.58,98.43,76.13,98.42,75.68ZM14.18,92.3c0,.35-.06.45-.37.44-1.58,0-3.16,0-4.74,0-1.79,0-3.59,0-5.38,0-.3,0-.38-.07-.38-.43q0-14.43,0-28.85c0-.29,0-.4.32-.4,3.4,0,6.8,0,10.2,0,.32,0,.34.14.34.43q0,6.62,0,13.22c0,.1,0,.19,0,.29v.06h0c0,.12,0,.23,0,.34s0,.26,0,.38l0,.42,0,0,0,.06v1c0,4,0,7.94,0,11.91C14.17,91.56,14.15,91.93,14.18,92.3Zm13.38.44c-3.4,0-6.8,0-10.21,0-.32,0-.42-.08-.42-.48,0-4.88,0-9.75,0-14.63v-.27c0-.1,0-.19,0-.28v-.27c0-2.15,0-4.29,0-6.44s0-4.59,0-6.88c0-.37.1-.43.39-.43,3.43,0,6.86,0,10.29,0,.33,0,.4.09.4.46q0,6.62,0,13.23,0,7.74,0,15.48C28,92.65,27.92,92.74,27.56,92.74Zm40.9-.48c0,.4-.1.48-.43.48h-26c-3.61,0-7.23,0-10.85,0-.38,0-.43-.12-.43-.52q0-10.64,0-21.26c0-.41.1-.49.42-.49,3.94,0,7.87,0,11.81,0h.17l.51,0,1.13,0H46l.75,0c.28,0,.55.06.82.06,6.81,0,13.61,0,20.42,0,.45,0,.52.14.52.63Q68.43,81.68,68.46,92.26Zm-.48-25H31.24c-.37,0-.47-.09-.47-.54q0-4.17,0-8.34c0-.42.06-.55.45-.55,5.76,0,11.52,0,17.27,0H68c.34,0,.45.07.45.51,0,2.8,0,5.59,0,8.39C68.46,67.21,68.33,67.26,68,67.26Zm14.09,25c0,.38-.08.46-.4.46-3.36,0-6.72,0-10.07,0-.34,0-.39-.12-.39-.47q0-9.06,0-18.1c0-.23,0-.47,0-.7l0-.28c0-3.17,0-6.33,0-9.5,0-.54.13-.64.56-.63q4.93,0,9.87,0c.35,0,.44.09.44.51Q82.06,77.93,82.07,92.28Zm13.19.46c-3.36,0-6.72,0-10.08,0-.26,0-.36-.06-.36-.4q0-14.43,0-28.86c0-.32,0-.42.34-.42H95.34c.28,0,.35.09.35.42q0,3.06,0,6.13c0,.18,0,.36,0,.55a3.78,3.78,0,0,0,0,.89v4.74c0,.27,0,.53,0,.79s0,.31,0,.46v.19q0,7.5,0,15C95.69,92.61,95.64,92.75,95.26,92.74Z"></path>
  <path class="cls-1" d="M28.59,33.4a3,3,0,0,0,1.08.2h40a1.4,1.4,0,0,0,1.56-1.41c0-1.37,0-2.73,0-4.1a1.29,1.29,0,0,0-.72-1.23c-1.26-.6-2.52-1.2-3.82-1.73v0c0-.11-.12-.09-.18-.12l-.64-.27a5.1,5.1,0,0,0-.77-.4l-.13-.06-.21-.1-.15-.08c-.55-.29-1.11-.56-1.67-.8-.92-.41-1.82-.86-2.77-1.2-1.11-.4-2.13-1-3.23-1.47-.73-.3-1.43-.68-2.17-1a.76.76,0,0,1-.59-.94,6.17,6.17,0,0,0,0-.86V8.33A1.36,1.36,0,0,0,52.75,7a1.25,1.25,0,0,0-1.36,1.32v12a1.37,1.37,0,0,0,.4,1,3.13,3.13,0,0,0,1.29.72c1.38.58,2.72,1.23,4.09,1.84,1,.44,2,.9,3,1.36l6.94,3.15c.44.2,1,.31,1.27.66s0,.94.07,1.42c0,.31,0,.41-.39.41H31.19c-.36,0-.46-.1-.41-.45a5.07,5.07,0,0,0,0-1c0-.3.05-.5.36-.58a3,3,0,0,0,.78-.29c1-.58,2.09-1,3.14-1.48l2.53-1.12c.69-.31,1.39-.64,2.08-1l.41-.2.82-.37h0a22.36,22.36,0,0,0,2-1h0l.38-.17.28-.11.47-.19.29-.14.17-.1L46,22l.3-.12.12-.07a.56.56,0,0,0,.15-.1l.08,0h0l.13,0,.12,0a.2.2,0,0,1,.08,0l.15-.09.08,0a.91.91,0,0,0,.54-.7l0-.07a1,1,0,0,0,0-.17,5.22,5.22,0,0,0,0-1c0-.68,0-1.37,0-2.06,0-3,0-5.94,0-8.91a1.45,1.45,0,0,0-.7-1.39,1.49,1.49,0,0,0-1.67.14,1.67,1.67,0,0,0-.39,1.31v9.3c0,.15,0,.29,0,.43a1,1,0,0,0,0,.24,1,1,0,0,0,0,.25.88.88,0,0,1-.53.81l-.16.06a7.52,7.52,0,0,0-1.08.5l-.35.18-1,.42a.56.56,0,0,0-.48.17h0l-.06.05-.15.09,0,0a25,25,0,0,0-2.5,1.06c-.57.32-1.18.55-1.76.86-1,.5-2,.95-3,1.36-.85.35-1.66.78-2.51,1.15s-1.68.73-2.52,1.11a1.36,1.36,0,0,0-1,1.26c0,.42,0,.85,0,1.28,0,1.12,0,2.25,0,3.37A.91.91,0,0,0,28.59,33.4Z"></path>
  <path class="cls-1" d="M28,43.75a3.07,3.07,0,0,0,.06.68,1.23,1.23,0,0,0,.38.72,1.76,1.76,0,0,0,1.11.2H49.79c6.62,0,13.24,0,19.86,0a1.51,1.51,0,0,0,1.57-1.61c0-1.76,0-3.53,0-5.3a1.14,1.14,0,0,0-.26-.73,1.64,1.64,0,0,0-1.47-.6H29.35a1.38,1.38,0,0,0-.94.37,1.42,1.42,0,0,0-.42,1.2C28,40.39,28,42.07,28,43.75Zm2.76-1.53c0-.68,0-1.35,0-2,0-.22.06-.3.29-.29.51,0,1,0,1.55,0H68c.4,0,.51.1.49.48,0,.62,0,1.24,0,1.86,0,.27-.06.36-.35.35-.89,0-1.78,0-2.67,0H31.14C30.83,42.6,30.76,42.51,30.77,42.22Z"></path>
  <path class="cls-1" d="M38.16,60.29a1.46,1.46,0,0,0-1.49,1.45,1.5,1.5,0,0,0,1.48,1.48,1.46,1.46,0,0,0,1.45-1.45A1.41,1.41,0,0,0,38.16,60.29Z"></path>
  <path class="cls-1" d="M51.24,60.29a1.43,1.43,0,0,0-1.49,1.43,1.47,1.47,0,0,0,1.49,1.5,1.52,1.52,0,0,0,1.45-1.47A1.47,1.47,0,0,0,51.24,60.29Z"></path>
  <path class="cls-1" d="M44.68,60.29a1.45,1.45,0,0,0-1.47,1.46,1.47,1.47,0,1,0,2.94,0A1.45,1.45,0,0,0,44.68,60.29Z"></path>
  <path class="cls-1" d="M57.74,60.29a1.43,1.43,0,0,0-1.46,1.42,1.47,1.47,0,0,0,1.43,1.51,1.49,1.49,0,0,0,1.49-1.46A1.44,1.44,0,0,0,57.74,60.29Z"></path>
  <path class="cls-1" d="M23.27,65.08a1.24,1.24,0,0,0-.27-.17,1.49,1.49,0,0,0-2,.81,1.45,1.45,0,0,0,1,1.9.3.3,0,0,0,.26,0,.44.44,0,0,0,.15,0h.1a1,1,0,0,0,.5-.18.36.36,0,0,0,.17-.07s0,0,0,0l.1-.06a.52.52,0,0,0,.11-.1.4.4,0,0,0,.1-.15l0,0,.07-.11h0A1.43,1.43,0,0,0,23.27,65.08Z"></path>
  <path class="cls-1" d="M77.53,65.07a1.45,1.45,0,0,0-1.87.09l0,0,0,0h0a.69.69,0,0,0-.11.13.08.08,0,0,1,0,0h0l0,.1c0,.12-.09.24-.13.36h0a.21.21,0,0,0,0,.06.52.52,0,0,0,0,.11,1.44,1.44,0,0,0,.75,1.5,1.34,1.34,0,0,0,.24.09,1.46,1.46,0,0,0,1.74-.74A1.5,1.5,0,0,0,77.53,65.07Z"></path>
  <path class="cls-1" d="M8.75,64.78a1.46,1.46,0,0,0-1.53,1.44,1.47,1.47,0,0,0,2.93,0A1.43,1.43,0,0,0,8.75,64.78Z"></path>
  <path class="cls-1" d="M90.35,64.78a1.46,1.46,0,0,0-1.5,1.43,1.48,1.48,0,0,0,1.45,1.5,1.5,1.5,0,0,0,1.48-1.43A1.46,1.46,0,0,0,90.35,64.78Z"></path>
  <path class="cls-1" d="M66.5,79.86s0,0,0,0a.17.17,0,0,0,0-.14l0-.11a1.67,1.67,0,0,0,0-.63s0-.07,0-.11l0-.06s0,0,0-.06a.66.66,0,0,0,0-.14c0-.82,0-1.65,0-2.48h0v-.83c0-1.1-.53-1.61-1.65-1.61H49.2c-.35,0-.69,0-1,0l-.35,0a.8.8,0,0,0-.26,0l-.18,0c-.87-.06-1.75,0-2.62,0h-.19a5.31,5.31,0,0,0-1.49,0l-.11,0h-.11a2.83,2.83,0,0,0-.65,0l-.11,0h-.05c-2.61,0-5.23,0-7.84,0a1.34,1.34,0,0,0-1.44,1.49V88.59c0,1.15.5,1.65,1.64,1.65H65a1.43,1.43,0,0,0,1.59-1.6c0-1.82,0-3.64,0-5.47C66.53,82.07,66.59,81,66.5,79.86Zm-3.14,7.62H35.93c-.33,0-.4-.07-.4-.4q0-5.14,0-10.29c0-.33.08-.4.4-.4,2.15,0,4.31,0,6.46,0a6.77,6.77,0,0,0,.78,0h.13l.13,0a19.23,19.23,0,0,0,2.84,0,.61.61,0,0,0,.44,0,1.63,1.63,0,0,0,.76,0,.74.74,0,0,0,.44,0l.38,0h.14c5,0,9.93,0,14.9,0,.36,0,.44.1.44.46,0,3.41,0,6.83,0,10.24C63.78,87.45,63.65,87.48,63.36,87.48Z"></path>
  <path class="cls-1" d="M52,77.82H47.7a1.32,1.32,0,0,0-1.37,1.3,1.36,1.36,0,0,0,1.31,1.46,32.76,32.76,0,0,0,4.43,0A1.38,1.38,0,1,0,52,77.82Z"></path>
</svg>
