<?xml version="1.0" encoding="UTF-8"?>
<svg xmlns="http://www.w3.org/2000/svg" id="Layer_1" data-name="Layer 1" viewBox="0 0 99 99">
  <defs>
    <style>.cls-1{fill:#fdab76;}</style>
  </defs>
  <path class="cls-1" d="M63.22,62.75a1.86,1.86,0,0,0-.53,1.88c.14,2.3-.81,3.51-3.2,3.14-2.91-.44-4.4.42-3.78,3.64.13.67.17,1.8-.19,2-2.68,1.76-1.66,4.27-1.67,6.67,0,4.56-6.07,12.9-10.3,14.54-2.33.91-4.11-.13-5.78-1.55-2.21-1.88-4.46-3.92-3.36-7.15.65-1.92.06-2.93-1.26-4.06s-2.77-2.66-4.12-4c-1.93-2-3.55-4-7-2.85-2.48.8-6.26-2.45-7.58-5.52-1.17-2.71.19-4.68,2-6.47a26.84,26.84,0,0,1,9.34-6.56c1.42-.54,3.05-1.3,4.4-.72,3,1.31,4.84-.34,6.81-2.13,2.55-2.3,5.18-4.51,7.85-6.67,1.07-.87,1-1.42,0-2.33-2.31-2.12-4.48-4.38-6.76-6.54-1.31-1.24-5.6-1.13-6.83.25-1.88,2.1-3.53,4.12-2.09,7.44,1.17,2.68-.21,5.18-2.55,6.84s-5.33,2-7.61.06A169.79,169.79,0,0,1,3.4,37.43c-1.87-2.06-1.61-5.42.14-7.6a6.4,6.4,0,0,1,7.26-2.42c4.36,1.27,7.8-1,8.33-5.5A13.45,13.45,0,0,1,31.67,10,7.16,7.16,0,0,0,36,8.33C45.94.59,56.25,4.47,63.1,10.18a1.9,1.9,0,0,1,.81,2.38,2,2,0,0,1-2.52,1.11c-5.88-1.05-9.85,2.66-14.1,5.67a1.34,1.34,0,0,0-.61,1.57c.13.48.41,1.05.27,1.47-1.75,5.44,2.44,7.9,5.46,10.91,3.87,3.86,3.89,3.83,8,.3q10.86-9.23,21.72-18.44c2.71-2.29,3.29-2.2,5.08.7,2.91,4.73,5.82,9.45,8.69,14.2,1.75,2.88,1.11,4.35-2.12,4.1-3.07-.24-4.15.68-3.69,3.73.36,2.43-1.11,3.36-3.31,3-2.83-.41-4.1.44-3.61,3.49.4,2.5-.93,3.64-3.37,3.23-3-.49-4,.65-3.53,3.55.16,1,.35,2.22-.76,2.73-1.63.75-.81,1.29-.06,2,3,2.88,5.93,5.79,8.88,8.7,4,3.93,4.53,7.7,1.54,10.76s-7,2.64-11.08-1.3Zm28.31-32.6c-2.27-3.72-4.35-7-6.32-10.43-.73-1.26-1.27-1.11-2.25-.28Q60.27,38.79,37.49,58.05c-1.39,1.18-.92,1.78.08,2.74,3.79,3.64,7.51,7.34,11.29,11,.53.51.94,1.59,1.87,1.16A2.25,2.25,0,0,0,52,70.42a15.6,15.6,0,0,1,0-1.81c0-4.5,0-4.65,4.45-4.51,2.15.07,2.42-.76,2.39-2.59-.08-4.13,0-4.25,4.24-4.13,2.08.06,2.79-.47,2.72-2.64-.13-4.1,0-4.28,3.92-4.07,2.46.13,3.28-.69,2.89-3-.53-3.23,1.12-4.22,4-3.77,2.28.35,3.16-.49,2.8-2.78-.47-3,.75-4.48,3.86-4,2.61.41,3.43-.74,3.07-3.18-.41-2.81.93-3.92,3.66-3.62A8.83,8.83,0,0,0,91.53,30.15ZM56,9.92c-6.81-3.3-12.8-2.68-18.22,1.83a7.68,7.68,0,0,1-5.37,2.05,9.37,9.37,0,0,0-9.51,9.36,5.83,5.83,0,0,1-2.83,5.5,23.86,23.86,0,0,1-2.74,1.89c-1.26.64-1,1.12-.17,2,2.49,2.63,4.89,5.35,7.48,8.21.83-1.16,1.18-1.64,1.52-2.13,2-2.82,3.82-5.08,8-5.19,6.11-.15,10-6.08,8.58-12.08a3.87,3.87,0,0,1,1.6-4.6A41.56,41.56,0,0,1,56,9.92ZM50.12,79.76c.08-1.37-.8-2.21-1.68-3.06-4.7-4.58-9.53-9-14-13.81-4-4.26-5.6-4.24-10.94-.88a28.53,28.53,0,0,0-3.95,3.28c-1.09,1-2.49,2.06-.88,3.74,1.38,1.43,2.66,3.47,5,1.67,1.74-1.33,2.88-.67,4.16.62,3.21,3.22,6.43,6.42,9.74,9.53,1.63,1.54,2.76,2.89.88,5.06-.92,1.08-.49,2.31.63,3.16s1.69,2.47,3.44,1.89C45,90.11,50.19,82.49,50.12,79.76ZM8.86,30.87a3.31,3.31,0,0,0-2.52,1.64c-.76,1.43-.2,2.53.81,3.52Q13.72,42.51,20.32,49c1.44,1.41,3.07,1.71,4.49.13s.78-3.11-.62-4.47q-6.3-6.12-12.55-12.28A4.49,4.49,0,0,0,8.86,30.87ZM67.92,61.15c3.56,3.77,7.21,7.68,10.93,11.51a2.77,2.77,0,0,0,4.29.06,2.49,2.49,0,0,0,.1-3.79c-4.38-4.41-8.84-8.73-13.46-13.27C69.19,57.94,70.5,60.54,67.92,61.15ZM41,35.23c2.33,2.39,4.53,4.58,6.64,6.85.92,1,1.57,1.12,2.72.2,3.21-2.55,3.26-2.48.4-5.3-.57-.56-1.13-1.14-1.72-1.68-1.37-1.27-2.67-3.36-4.18-3.53C43.67,31.64,42.26,34,41,35.23Z"></path>
  <path class="cls-1" d="M43.68,77.63c-.12,1.79-1.83,2.57-3.11,1.38C37,75.71,33.63,72.26,30.2,68.84a1.62,1.62,0,0,1,0-2.43,1.65,1.65,0,0,1,2.43-.3c3.66,3.46,7.23,7,10.8,10.57C43.63,76.93,43.62,77.43,43.68,77.63Z"></path>
</svg>
