<?xml version="1.0" encoding="UTF-8"?>
<svg xmlns="http://www.w3.org/2000/svg" id="Layer_1" data-name="Layer 1" viewBox="0 0 99 99">
  <defs>
    <style>.cls-1{fill:#fdab76;}</style>
  </defs>
  <path class="cls-1" d="M43.73,45.54c0,.34,0,.69,0,1s0,.69,0,1c0-.35,0-.69,0-1S43.75,45.88,43.73,45.54Z"></path>
  <path class="cls-1" d="M55.31,47.38v-.81c0-.31,0-.61,0-.92,0,.31,0,.61,0,.92Z"></path>
  <path class="cls-1" d="M64.11,18.66c-.36-.08-.72-.15-1.08-.24q0-4.61,0-9.21,0,4.6,0,9.21C63.39,18.51,63.75,18.58,64.11,18.66Z"></path>
  <path class="cls-1" d="M51.42,36.85c0-1.66.47-2.58,1.45-2.81-1,.23-1.45,1.15-1.45,2.81,0,.35,0,.7,0,1C51.4,37.55,51.42,37.2,51.42,36.85Z"></path>
  <path class="cls-1" d="M44.37,22.14h0Z"></path>
  <path class="cls-1" d="M63,9.18A.92.92,0,0,1,63.6,9a.92.92,0,0,0-.59.22Z"></path>
  <path class="cls-1" d="M55.55,22.38h0a4.93,4.93,0,0,1-.34-2.32A4.93,4.93,0,0,0,55.55,22.38Z"></path>
  <path class="cls-1" d="M56.12,22.14h0Z"></path>
  <path class="cls-1" d="M9.32,63.06h0Z"></path>
  <path class="cls-1" d="M89.92,59.11a17.8,17.8,0,0,0-2.31,0c-1.12.13-1.41-.26-1.41-1.39q.08-18.58,0-37.18a7.67,7.67,0,0,0-7.79-7.77H69.75c-2.92,0-2.88,0-2.9,3,0,.84.28,1,1.06,1,3.32,0,6.64,0,10,0,3,0,4.4,1.41,4.4,4.38,0,12.2,0,24.4,0,36.6,0,1.25-.4,1.42-1.49,1.41q-19.69,0-39.39,0H9.11a5.66,5.66,0,0,0-4.51,2,5.56,5.56,0,0,0-.92,6.26,5.63,5.63,0,0,0,5.56,3.44H52.45c3,0,2.94,0,2.93-3,0-.79-.27-.94-1-.94-4.67,0-9.34,0-14,0H9.79a3.11,3.11,0,0,1-1.59-.2,1.8,1.8,0,0,1-1-2.1,1.91,1.91,0,0,1,2.17-1.48H88.67c.5,0,1,0,1.51,0a1.8,1.8,0,0,1,1.75,1.79,1.9,1.9,0,0,1-1.64,1.93,9,9,0,0,1-1.27,0H61.8c-2.68,0-2.61,0-2.7,2.73,0,1.08.33,1.24,1.3,1.24,8.11,0,16.22,0,24.33,0,.68,0,1,0,.8.91-1,4.75-1.92,9.52-2.88,14.29-.33,1.66-.86,2.07-2.64,2.07H19.09c-1.9,0-2.36-.39-2.73-2.24-.57-2.8-1.13-5.6-1.73-8.39-.66-3.11-.68-3.09-3.87-2.89-.5,0-.69.12-.58.66.86,4.19,1.64,8.4,2.59,12.57A5.5,5.5,0,0,0,18.09,92c2.44.08,2.5.09,2.42,2.49,0,1.06.15,1.47,1.34,1.43,2.61-.11,2.67,0,2.59-2.69,0-1.06.31-1.25,1.29-1.25q22.94,0,45.87,0c.92,0,2.11-.31,2.71.14s.24,1.79.24,2.73.24,1.13,1,1a4,4,0,0,1,.69,0c2.22,0,2.22,0,2.22-2.23,0-1.65,0-1.65,1.65-1.65,3.62,0,5.66-1.68,6.38-5.25,1-5,2-9.9,3-14.85.15-.74.38-1.05,1.21-1.15a5.82,5.82,0,0,0-.8-11.61Z"></path>
  <path class="cls-1" d="M43.54,30.21q9.84.06,19.69,0A5.82,5.82,0,0,0,65.16,19a7.83,7.83,0,0,0-1-.3c-.36-.08-.72-.15-1.08-.24s-.28-.42-.28-.69V9.89c0-.27,0-.55.26-.71A.92.92,0,0,1,63.6,9l.63,0H80.1a9.63,9.63,0,0,1,9.92,10V52.65c0,2.68,0,2.61,2.69,2.7C93.85,55.39,94,55,94,54q-.06-17.61,0-35.22A13.56,13.56,0,0,0,80.26,5H62.65A2.34,2.34,0,0,1,61,4.48a5.55,5.55,0,0,0-3.84-1.36c-2.43,0-4.86,0-7.29,0a5.78,5.78,0,0,0-6.16,6.16c0,2.63,0,5.26,0,7.88,0,1-.2,1.36-1.23,1.56A5.68,5.68,0,0,0,37.94,25,5.77,5.77,0,0,0,43.54,30.21Zm-1.45-6.75a3.1,3.1,0,0,1,1.63-1.07.68.68,0,0,1,.42-.23l.15,0h.16l.46,0c2.17,0,4.34,0,6.51,0a16.48,16.48,0,0,0,.1-3c0-.43-.18-.65-.62-.62a3.53,3.53,0,0,1-.46,0c-.91-.08-2.15.42-2.64-.21s-.17-1.77-.18-2.7c0-2.08,0-4.16,0-6.25,0-1.67.67-2.3,2.32-2.31,2.35,0,4.71,0,7.06,0,1.38,0,2.11.64,2.13,2,0,2.9,0,5.79,0,8.68,0,.64-.26.83-.83.77a1.77,1.77,0,0,0-.46,0c-.83.1-2.18-.39-2.39.19a5.74,5.74,0,0,0-.28,1.32,4.93,4.93,0,0,0,.34,2.32.72.72,0,0,1,.57-.24h.24l.38,0c1.85,0,3.69,0,5.54,0,.4,0,.86-.14,1.18.25l.57.38a1.78,1.78,0,0,1,.79,2.11A1.75,1.75,0,0,1,63,26.26q-9.6,0-19.21,0a1.79,1.79,0,0,1-1.93-1.61A1.62,1.62,0,0,1,42.09,23.46Z"></path>
  <path class="cls-1" d="M61,39.87a2,2,0,0,0,2-1.8,8.84,8.84,0,0,0,0-1.15c0-2-.65-2.93-2-2.94s-2,1-2,2.91c0,.35,0,.69,0,1A2,2,0,0,0,61,39.87Z"></path>
  <path class="cls-1" d="M64.92,49.49a1.9,1.9,0,0,0,2-1.79,11,11,0,0,0,0-1.15c0-2-.64-2.9-2-2.89S63,44.57,63,46.57c0,.34,0,.69,0,1A1.86,1.86,0,0,0,64.92,49.49Z"></path>
  <path class="cls-1" d="M49.52,49.49c1.38,0,2-.88,2-2.87a13.94,13.94,0,0,0-.17-1.48,1.8,1.8,0,0,0-1.93-1.47c-1.34,0-2,1-1.95,3.06S48.16,49.49,49.52,49.49Z"></path>
  <path class="cls-1" d="M45.62,39.86c1.37,0,2-.87,2-2.86a9,9,0,0,0,0-1.27,2,2,0,0,0-3.7-.62A4.09,4.09,0,0,0,43.69,37C43.68,38.94,44.3,39.83,45.62,39.86Z"></path>
  <path class="cls-1" d="M53.27,39.87A2,2,0,0,0,55.34,38a11.23,11.23,0,0,0,0-1.16c0-2-.67-2.91-2-2.86a2.13,2.13,0,0,0-.45.06c-1,.23-1.45,1.15-1.45,2.81,0,.35,0,.7,0,1A2,2,0,0,0,53.27,39.87Z"></path>
  <path class="cls-1" d="M43.73,46.57c0-.34,0-.69,0-1A1.92,1.92,0,0,0,42,43.67a1.89,1.89,0,0,0-2.13,1.51,6.68,6.68,0,0,0,0,2.85,1.93,1.93,0,0,0,3.81-.42C43.74,47.26,43.73,46.92,43.73,46.57Z"></path>
  <path class="cls-1" d="M55.31,46.57v.81c0,1.34.69,2.09,1.88,2.11a1.9,1.9,0,0,0,2-2,11,11,0,0,0,0-2.07,1.94,1.94,0,0,0-3.87.25C55.3,46,55.31,46.26,55.31,46.57Z"></path>
</svg>
