<?xml version="1.0" encoding="UTF-8"?>
<svg xmlns="http://www.w3.org/2000/svg" id="Layer_1" data-name="Layer 1" width="175" height="100" viewBox="0 0 175 100">
  <defs>
    <style>.cls-1{fill:#4dbc15;}</style>
  </defs>
  <polygon class="cls-1" points="22.4 70 35.8 70 35.8 47.3 9 39.5 9 30 0.1 30 0.1 70 13.5 70 13.5 57.5 22.4 57.5 22.4 70"></polygon>
  <path d="M98.5,50.2a11.71,11.71,0,0,0-16.6,0,14.55,14.55,0,0,0-2.5,3.6,10.23,10.23,0,0,0-.9,4.6,10.79,10.79,0,0,0,3.4,8.2,14.55,14.55,0,0,0,3.6,2.5,13,13,0,0,0,9.1,0,10.54,10.54,0,0,0,3.6-2.5,11.42,11.42,0,0,0,3.4-8.2,10.23,10.23,0,0,0-.9-4.6A9.24,9.24,0,0,0,98.5,50.2Zm-2.3,11a4.65,4.65,0,0,1-1.4,2.3,7.33,7.33,0,0,1-2,1.4,7.46,7.46,0,0,1-5.5,0,6.61,6.61,0,0,1-2-1.4,8.84,8.84,0,0,1-1.4-2.3,8,8,0,0,1,0-5.7,4.65,4.65,0,0,1,1.4-2.3,7.33,7.33,0,0,1,2-1.4,7.46,7.46,0,0,1,5.5,0,6.61,6.61,0,0,1,2,1.4,8.84,8.84,0,0,1,1.4,2.3A8,8,0,0,1,96.2,61.2Z"></path>
  <polygon points="151.3 51.6 151.3 47.5 133.8 47.5 133.8 51.8 144.9 51.8 133.3 65.3 133.3 69.6 151.8 69.6 151.8 65 139.5 65 151.3 51.6"></polygon>
  <polygon points="162.7 65 174.3 51.6 174.3 47.5 157 47.5 157 51.8 168.2 51.8 156.6 65.3 156.6 69.6 175 69.6 175 65 162.7 65"></polygon>
  <path d="M68.2,47.5a9.83,9.83,0,0,0-9.8,1.4V39.6h-5V69.4h5V57.5c0-2.3.7-5.9,5-5.9,3.9,0,5.5,3.2,5.5,5.9V69.3h4.8V55.9C73.4,52,71.6,49.1,68.2,47.5Z"></path>
  <path d="M122.8,59.6a6.48,6.48,0,0,1-.2,2,4.35,4.35,0,0,1-.9,1.8h0a3.56,3.56,0,0,1-1.6,1.4,6.21,6.21,0,0,1-5,0c-.7-.2-1.1-.9-1.6-1.4a3.84,3.84,0,0,1-.9-1.8,7.14,7.14,0,0,1-.2-2V47.5h-4.8V60c0,4.8,2,7.7,6.1,9.3a12.79,12.79,0,0,0,8.2,0c5-1.8,6.1-6.1,6.1-9.3V47.5h-4.8V59.6Z"></path>
</svg>
