<?xml version="1.0" encoding="UTF-8"?> <svg xmlns="http://www.w3.org/2000/svg" width="512" height="512" viewBox="0 0 512 512" fill="none"><g clip-path="url(#clip0_10123_150)"><path d="M17.3135 -0.380287C18.1515 -0.384947 18.9896 -0.389607 19.853 -0.394408C22.6739 -0.406402 25.4942 -0.396945 28.3151 -0.38765C30.3528 -0.391821 32.3905 -0.397297 34.4282 -0.40397C40.0377 -0.418474 45.6471 -0.414164 51.2567 -0.406803C57.3024 -0.402086 63.3482 -0.414568 69.3939 -0.42482C80.5566 -0.441046 91.7193 -0.443448 102.882 -0.438515C113.194 -0.433961 123.506 -0.434554 133.819 -0.440356C135.201 -0.441113 136.584 -0.441869 137.966 -0.442624C140.049 -0.443769 142.132 -0.444919 144.215 -0.446083C163.587 -0.45679 182.958 -0.461511 202.329 -0.453613C203.059 -0.453316 203.79 -0.453018 204.542 -0.452712C210.474 -0.450263 216.406 -0.447652 222.338 -0.445028C245.48 -0.434925 268.621 -0.443282 291.763 -0.466523C317.754 -0.492584 343.745 -0.505446 369.737 -0.498335C372.507 -0.497619 375.277 -0.496944 378.048 -0.496294C378.73 -0.496125 379.412 -0.495955 380.115 -0.49578C390.42 -0.493475 400.726 -0.501463 411.032 -0.514586C422.749 -0.52948 434.467 -0.529987 446.184 -0.512515C452.166 -0.503975 458.147 -0.501929 464.129 -0.517167C469.601 -0.530934 475.072 -0.526353 480.544 -0.506927C482.527 -0.503143 484.51 -0.50616 486.493 -0.516539C489.183 -0.529618 491.871 -0.518207 494.561 -0.500541C495.336 -0.510192 496.111 -0.519842 496.91 -0.529785C502.084 -0.459701 505.009 0.743855 509 4.00003C513.492 9.54547 512.485 16.3783 512.446 23.1468C512.438 25.4275 512.466 27.7058 512.498 29.9864C512.5 31.4479 512.499 32.9095 512.496 34.3711C512.498 35.6904 512.5 37.0097 512.502 38.3689C511.803 43.4292 509.668 46.5284 505.875 49.875C503 51 503 51 493 51C493 186.3 493 321.6 493 461C496.3 461 499.6 461 503 461C507.537 463.227 509.816 465.488 512 470C512.543 474.705 512.473 479.415 512.446 484.147C512.438 486.428 512.466 488.706 512.498 490.986C512.5 492.448 512.499 493.91 512.496 495.371C512.498 496.69 512.5 498.01 512.502 499.369C511.803 504.426 509.924 507.456 505.949 510.646C501.776 512.562 498.077 512.415 493.535 512.381C492.099 512.388 492.099 512.388 490.633 512.395C487.422 512.407 484.211 512.398 481 512.388C478.698 512.392 476.397 512.398 474.096 512.404C467.844 512.418 461.592 512.412 455.34 512.403C448.805 512.395 442.269 512.402 435.734 512.407C424.057 512.414 412.38 512.404 400.702 512.388C390.111 512.375 379.519 512.377 368.927 512.391C356.629 512.407 344.331 512.413 332.033 512.404C325.522 512.4 319.011 512.399 312.5 512.409C306.382 512.418 300.264 512.412 294.146 512.394C291.896 512.39 289.646 512.391 287.396 512.398C284.334 512.406 281.273 512.396 278.211 512.381C276.863 512.391 276.863 512.391 275.488 512.401C274.67 512.393 273.852 512.386 273.01 512.378C272.303 512.377 271.596 512.377 270.867 512.376C268.425 511.884 267.527 510.931 266 509C265.602 506.844 265.602 506.844 265.625 504.5C265.617 503.727 265.61 502.953 265.602 502.156C266.1 499.459 266.886 498.706 269 497C272.073 496.711 274.943 496.609 278.017 496.639C279.417 496.635 279.417 496.635 280.846 496.632C283.987 496.627 287.129 496.643 290.27 496.659C292.517 496.66 294.764 496.66 297.01 496.658C303.122 496.657 309.233 496.675 315.344 496.696C321.726 496.715 328.108 496.716 334.491 496.72C345.207 496.728 355.923 496.747 366.638 496.774C377.677 496.801 388.715 496.822 399.753 496.835C400.433 496.836 401.113 496.837 401.814 496.838C405.227 496.842 408.639 496.845 412.052 496.849C440.368 496.88 468.684 496.934 497 497C497 490.4 497 483.8 497 477C337.94 477 178.88 477 15.0001 477C15.0001 483.6 15.0001 490.2 15.0001 497C17.8498 496.993 20.6995 496.987 23.6356 496.98C49.7519 496.92 75.8681 496.875 101.984 496.847C105.405 496.843 108.826 496.839 112.247 496.835C113.269 496.834 113.269 496.834 114.311 496.833C125.348 496.82 136.384 496.796 147.42 496.769C158.74 496.741 170.059 496.724 181.378 496.718C187.738 496.714 194.098 496.705 200.458 496.683C206.439 496.663 212.42 496.656 218.401 496.661C220.601 496.66 222.801 496.654 225.001 496.642C227.995 496.628 230.989 496.631 233.984 496.639C234.862 496.631 235.74 496.622 236.645 496.613C242.575 496.657 242.575 496.657 244.721 498.388C246.402 500.506 246.402 501.821 246.375 504.5C246.383 505.273 246.391 506.047 246.398 506.844C245.9 509.543 245.118 510.295 243 512C241.134 512.377 241.134 512.377 238.993 512.38C238.176 512.389 237.358 512.397 236.516 512.406C235.619 512.4 234.721 512.394 233.796 512.388C232.842 512.393 231.888 512.398 230.906 512.404C227.695 512.418 224.485 512.411 221.274 512.404C218.978 512.41 216.682 512.417 214.386 512.425C208.138 512.443 201.89 512.442 195.642 512.436C190.431 512.433 185.219 512.439 180.008 512.445C167.011 512.46 154.014 512.456 141.017 512.444C129.731 512.434 118.444 512.447 107.158 512.471C95.5708 512.495 83.9836 512.505 72.3963 512.498C65.8903 512.495 59.3845 512.497 52.8786 512.515C46.7595 512.53 40.6408 512.526 34.5218 512.507C32.2748 512.504 30.0277 512.507 27.7808 512.517C24.7151 512.53 21.6505 512.519 18.5849 512.501C17.694 512.511 16.803 512.52 15.8851 512.53C10.437 512.466 7.32351 511.627 3.00006 508C-1.49148 502.455 -0.484571 495.622 -0.445986 488.853C-0.437478 486.573 -0.466257 484.294 -0.49799 482.014C-0.499602 480.552 -0.499021 479.091 -0.496035 477.629C-0.497888 476.31 -0.499741 474.99 -0.50165 473.631C0.197525 468.571 2.33222 465.472 6.12506 462.125C9.00006 461 9.00006 461 19.0001 461C19.0001 325.7 19.0001 190.4 19.0001 51C15.7001 51 12.4001 51 9.00006 51C4.46276 48.7726 2.18405 46.5119 5.91874e-05 42C-0.542883 37.2946 -0.472963 32.5855 -0.445986 27.8533C-0.437478 25.5725 -0.466257 23.2942 -0.49799 21.0137C-0.499602 19.5521 -0.499021 18.0905 -0.496035 16.6289C-0.497888 15.3097 -0.499741 13.9904 -0.50165 12.6311C0.199679 7.55529 2.07421 4.49285 6.12306 1.35438C9.87598 -0.412313 13.2509 -0.415483 17.3135 -0.380287ZM15.0001 15C15.0001 21.6 15.0001 28.2 15.0001 35C174.06 35 333.12 35 497 35C497 28.4 497 21.8 497 15C337.94 15 178.88 15 15.0001 15ZM35.0001 51C35.0001 57.6 35.0001 64.2 35.0001 71C36.4612 71.0094 37.9224 71.0187 39.4278 71.0284C44.9224 71.0686 50.4165 71.1345 55.9107 71.2076C58.2749 71.2355 60.6392 71.2569 63.0035 71.271C85.5505 71.4142 104.397 73.031 121.488 89.293C135.316 104.196 137.199 121.658 138 141C139.043 141.014 139.043 141.014 140.108 141.028C143.281 141.082 146.453 141.166 149.625 141.25C150.719 141.264 151.814 141.278 152.941 141.293C159.03 141.478 163.352 141.637 168 146C171.978 151.596 171.48 156.73 171.438 163.375C171.458 164.486 171.478 165.597 171.498 166.742C171.494 173.315 171.278 177.855 167 183C161.62 185.87 157.288 186.439 151.254 186.404C149.984 186.414 149.984 186.414 148.689 186.425C145.908 186.443 143.128 186.439 140.348 186.434C138.404 186.438 136.46 186.443 134.516 186.45C130.449 186.458 126.381 186.456 122.314 186.446C117.114 186.435 111.915 186.455 106.716 186.484C102.703 186.502 98.691 186.502 94.6785 186.496C92.7621 186.496 90.8456 186.502 88.9292 186.515C86.2441 186.53 83.5603 186.519 80.8753 186.502C79.7006 186.516 79.7006 186.516 78.5023 186.531C72.9499 186.457 68.6332 185.121 64.0001 182C59.7655 176.701 60.5214 169.974 60.5626 163.5C60.5326 161.827 60.5326 161.827 60.502 160.121C60.5057 153.982 60.5647 149.67 65.0001 145C69.6081 140.868 75.4408 141.444 81.3126 141.313C82.3393 141.278 83.366 141.244 84.4239 141.209C86.9492 141.127 89.4741 141.058 92.0001 141C92.8514 129.693 92.8514 129.693 88.0001 120C72.1732 112.087 52.695 117 35.0001 117C35.0001 230.52 35.0001 344.04 35.0001 461C85.1601 461 135.32 461 187 461C187 325.7 187 190.4 187 51C136.84 51 86.6801 51 35.0001 51ZM203 51C203 186.3 203 321.6 203 461C217.85 461 232.7 461 248 461C248 456.38 248 451.76 248 447C246.866 446.963 245.731 446.925 244.563 446.887C228.714 446.249 228.714 446.249 223 443C218.642 437.747 217.876 433.653 217.869 427.002C217.865 425.765 217.861 424.529 217.857 423.256C217.858 421.882 217.859 420.508 217.86 419.134C217.857 417.676 217.854 416.218 217.851 414.76C217.843 410.748 217.841 406.737 217.84 402.725C217.838 398.4 217.831 394.076 217.824 389.751C217.81 380.292 217.804 370.834 217.8 361.375C217.797 355.47 217.793 349.565 217.788 343.66C217.776 327.313 217.766 310.965 217.762 294.618C217.762 293.572 217.762 292.526 217.762 291.448C217.762 290.399 217.761 289.35 217.761 288.269C217.761 286.144 217.76 284.018 217.76 281.893C217.759 280.311 217.759 280.311 217.759 278.698C217.755 261.612 217.738 244.527 217.714 227.442C217.691 209.904 217.678 192.366 217.677 174.828C217.676 164.979 217.67 155.131 217.652 145.283C217.637 136.897 217.632 128.512 217.64 120.126C217.644 115.847 217.643 111.569 217.629 107.291C217.616 103.372 217.617 99.4544 217.63 95.5361C217.632 94.1202 217.628 92.7043 217.62 91.2884C217.577 83.8967 217.599 77.6636 221 71C225.511 67.2566 229.378 65.9875 235.109 65.6836C235.864 65.6417 236.618 65.5998 237.395 65.5567C238.172 65.5174 238.949 65.478 239.75 65.4375C240.543 65.3943 241.336 65.3512 242.152 65.3067C244.101 65.201 246.051 65.1001 248 65C248 60.38 248 55.76 248 51C233.15 51 218.3 51 203 51ZM264 51C264 186.3 264 321.6 264 461C334.29 461 404.58 461 477 461C477 325.7 477 190.4 477 51C406.71 51 336.42 51 264 51ZM233 81C233 124.56 233 168.12 233 213C237.95 213 242.9 213 248 213C248 169.44 248 125.88 248 81C243.05 81 238.1 81 233 81ZM35.0001 87C35.0001 91.62 35.0001 96.24 35.0001 101C36.4268 101.009 37.8536 101.019 39.3235 101.028C44.6596 101.068 49.9951 101.134 55.3309 101.208C57.6322 101.236 59.9337 101.257 62.2352 101.271C65.5596 101.293 68.883 101.339 72.2071 101.391C73.7297 101.392 73.7297 101.392 75.283 101.394C83.5387 101.56 90.7828 103.433 97.8751 107.75C104.905 115.193 107.184 123.391 107.625 133.438C107.664 134.169 107.702 134.901 107.742 135.654C107.835 137.436 107.919 139.218 108 141C112.62 141 117.24 141 122 141C122.545 125.1 121.189 111.99 109.895 99.711C98.9108 89.3299 87.1043 86.6567 72.4024 86.8047C71.3275 86.8075 70.2527 86.8104 69.1452 86.8133C65.7425 86.8244 62.3401 86.8495 58.9376 86.875C56.6179 86.8851 54.2982 86.8942 51.9786 86.9024C46.319 86.9243 40.6596 86.9588 35.0001 87ZM76.0001 157C76.0001 161.62 76.0001 166.24 76.0001 171C102.4 171 128.8 171 156 171C156 166.38 156 161.76 156 157C129.6 157 103.2 157 76.0001 157ZM233 229C233 246.82 233 264.64 233 283C237.95 283 242.9 283 248 283C248 265.18 248 247.36 248 229C243.05 229 238.1 229 233 229ZM233 299C233 342.56 233 386.12 233 431C237.95 431 242.9 431 248 431C248 387.44 248 343.88 248 299C243.05 299 238.1 299 233 299Z" fill="#FDAB76"></path><path d="M297.59 64.7395C298.239 64.7357 298.888 64.7318 299.556 64.7279C301.721 64.7176 303.887 64.7215 306.052 64.7255C307.608 64.7212 309.164 64.716 310.72 64.71C314.941 64.6967 319.162 64.6961 323.383 64.6986C326.909 64.6997 330.436 64.6948 333.962 64.69C342.283 64.6789 350.604 64.6785 358.925 64.6845C367.503 64.6905 376.081 64.6782 384.658 64.6569C392.028 64.6393 399.398 64.6333 406.768 64.6366C411.168 64.6384 415.567 64.6358 419.967 64.6219C424.105 64.6093 428.243 64.6112 432.382 64.6243C433.898 64.6266 435.414 64.6239 436.93 64.6157C439.006 64.6052 441.08 64.6133 443.156 64.626C444.315 64.6258 445.475 64.6256 446.669 64.6255C451.214 65.1367 455.244 66.4526 458.742 69.5353C462.327 74.3692 463.126 76.5028 463.147 82.5158C463.151 83.1925 463.154 83.8693 463.158 84.5666C463.169 86.8451 463.173 89.1235 463.177 91.402C463.183 93.0313 463.19 94.6605 463.197 96.2898C463.214 100.724 463.225 105.158 463.233 109.591C463.238 112.36 463.244 115.128 463.251 117.896C463.27 126.553 463.284 135.209 463.292 143.865C463.302 153.867 463.328 163.869 463.369 173.871C463.399 181.596 463.414 189.321 463.417 197.046C463.419 201.663 463.428 206.279 463.453 210.896C463.477 215.238 463.481 219.58 463.471 223.922C463.47 225.516 463.477 227.111 463.49 228.706C463.508 230.881 463.501 233.055 463.488 235.231C463.49 236.448 463.492 237.666 463.495 238.921C462.905 242.594 461.91 243.76 459 246C457 246.567 457 246.567 455 246.563C454.01 246.596 454.01 246.596 453 246.629C449.845 245.637 448.796 243.714 447 241C446.508 237.886 446.508 237.886 446.519 234.325C446.516 233.667 446.512 233.009 446.509 232.332C446.502 230.136 446.524 227.941 446.546 225.745C446.547 224.168 446.546 222.591 446.544 221.014C446.543 216.737 446.566 212.461 446.594 208.185C446.619 203.714 446.622 199.243 446.626 194.772C446.639 186.307 446.672 177.843 446.712 169.379C446.765 157.94 446.787 146.5 446.81 135.061C446.848 117.041 446.927 99.0206 447 81.0002C396.51 81.0002 346.02 81.0002 294 81.0002C294 124.56 294 168.12 294 213C300.6 213 307.2 213 314 213C321.319 217.879 321.319 217.879 324 223C324.508 226.187 324.508 226.187 324.518 229.645C324.53 230.946 324.543 232.248 324.556 233.589C324.549 234.997 324.54 236.405 324.531 237.813C324.534 239.269 324.538 240.726 324.543 242.183C324.549 245.229 324.54 248.275 324.521 251.321C324.499 255.215 324.512 259.108 324.536 263.002C324.55 266.008 324.546 269.014 324.535 272.021C324.533 273.456 324.536 274.891 324.545 276.326C324.555 278.336 324.537 280.346 324.518 282.356C324.513 284.067 324.513 284.067 324.508 285.813C323.869 289.825 322.581 291.877 320 295C314 299 314 299 294 299C294 342.56 294 386.12 294 431C344.49 431 394.98 431 447 431C446.954 419.508 446.907 408.016 446.859 396.176C446.839 388.907 446.819 381.638 446.805 374.369C446.781 362.825 446.753 351.281 446.698 339.737C446.658 331.33 446.633 322.923 446.624 314.516C446.618 310.064 446.606 305.612 446.577 301.16C446.55 296.97 446.542 292.78 446.548 288.59C446.546 287.052 446.538 285.514 446.523 283.976C446.503 281.876 446.508 279.776 446.519 277.676C446.515 276.5 446.512 275.325 446.508 274.114C447.102 270.352 448.349 268.685 451 266C453 265.371 453 265.371 455 265.438C455.66 265.436 456.32 265.435 457 265.434C459.943 266.267 461.098 267.62 463 270C463.503 273.068 463.503 273.068 463.508 276.743C463.514 277.42 463.52 278.097 463.527 278.795C463.543 281.062 463.53 283.329 463.518 285.597C463.523 287.224 463.53 288.85 463.539 290.476C463.557 294.894 463.55 299.311 463.537 303.728C463.527 308.351 463.537 312.974 463.543 317.597C463.55 325.363 463.54 333.129 463.521 340.895C463.5 349.87 463.507 358.845 463.529 367.82C463.547 375.526 463.549 383.233 463.539 390.939C463.533 395.541 463.532 400.143 463.545 404.746C463.557 409.075 463.549 413.403 463.526 417.732C463.52 419.32 463.522 420.907 463.531 422.494C463.542 424.665 463.528 426.833 463.508 429.004C463.506 430.217 463.505 431.43 463.503 432.681C462.728 437.791 460.229 440.863 456.5 444.313C452.273 447.166 448.612 447.128 443.574 447.141C442.61 447.145 442.61 447.145 441.626 447.15C439.474 447.158 437.321 447.16 435.169 447.161C433.625 447.166 432.08 447.171 430.536 447.176C426.342 447.19 422.147 447.196 417.953 447.2C415.331 447.203 412.709 447.207 410.087 447.212C401.88 447.226 393.672 447.235 385.464 447.239C375.998 447.244 366.531 447.261 357.065 447.29C349.742 447.312 342.42 447.322 335.097 447.323C330.726 447.324 326.355 447.33 321.985 447.348C317.871 447.364 313.757 447.367 309.643 447.358C308.137 447.357 306.631 447.361 305.125 447.371C287.785 447.479 287.785 447.479 282.459 442.584C278.559 438.161 277.875 434.779 277.869 429.057C277.865 427.807 277.861 426.558 277.857 425.271C277.858 423.877 277.859 422.483 277.86 421.089C277.857 419.614 277.854 418.139 277.851 416.664C277.842 412.6 277.841 408.537 277.84 404.474C277.838 400.095 277.831 395.717 277.824 391.338C277.81 381.76 277.804 372.181 277.8 362.603C277.797 356.625 277.793 350.646 277.788 344.668C277.776 328.123 277.766 311.578 277.762 295.032C277.762 293.973 277.762 292.914 277.762 291.822C277.762 290.761 277.761 289.699 277.761 288.605C277.761 286.453 277.76 284.301 277.76 282.149C277.76 281.082 277.759 280.015 277.759 278.915C277.755 261.615 277.738 244.315 277.714 227.014C277.691 209.262 277.678 191.509 277.677 173.757C277.676 163.785 277.67 153.814 277.652 143.843C277.637 135.353 277.632 126.864 277.64 118.374C277.644 114.041 277.643 109.708 277.629 105.375C277.616 101.41 277.617 97.4442 277.629 93.4785C277.631 92.0431 277.628 90.6077 277.62 89.1723C277.609 87.2219 277.618 85.2715 277.628 83.3211C277.627 82.2375 277.627 81.1539 277.626 80.0374C278.21 75.2907 279.919 72.024 283.375 68.7502C288.141 65.5726 291.875 64.7496 297.59 64.7395ZM294 229C294 246.82 294 264.64 294 283C298.62 283 303.24 283 308 283C308 265.18 308 247.36 308 229C303.38 229 298.76 229 294 229Z" fill="#FDAB76"></path><path d="M366 111C368.898 112.882 368.898 112.882 371.59 115.555C372.088 116.039 372.587 116.524 373.101 117.023C374.734 118.621 376.336 120.246 377.938 121.875C379.068 123.001 380.2 124.125 381.333 125.248C383.7 127.603 386.051 129.971 388.393 132.35C391.39 135.393 394.422 138.398 397.466 141.394C399.809 143.708 402.132 146.041 404.45 148.38C405.561 149.496 406.677 150.606 407.8 151.709C409.368 153.258 410.909 154.83 412.445 156.41C413.768 157.743 413.768 157.743 415.118 159.102C417.712 163.096 417.472 165.297 417 170C415.438 172.5 415.438 172.5 413 174C409.75 174.688 409.75 174.688 406 174C404.25 172.754 404.25 172.754 402.416 171.084C401.715 170.447 401.015 169.81 400.293 169.154C393.473 162.748 386.788 156.205 380.132 149.629C377.553 147.08 374.966 144.54 372.359 142.018C369.817 139.557 367.294 137.077 364.785 134.583C363.371 133.187 361.937 131.811 360.503 130.435C353.439 123.349 353.439 123.349 353.322 118.521C354 115 354 115 355.5 112.5C358.94 110.436 362.124 110.372 366 111Z" fill="#FDAB76"></path><path d="M398.924 100.367C402.573 101.48 404.819 103.819 407.434 106.504C407.997 107.061 408.56 107.617 409.141 108.191C410.322 109.367 411.493 110.552 412.657 111.744C414.433 113.558 416.243 115.331 418.061 117.104C419.208 118.256 420.353 119.41 421.496 120.566C422.035 121.091 422.573 121.615 423.128 122.155C427.061 126.264 427.959 129.291 428 135C425.678 138.377 424.148 139.694 420.188 140.75C411.709 138.755 404.512 128.663 398.562 122.687C397.653 121.782 396.744 120.876 395.807 119.943C394.944 119.079 394.081 118.215 393.191 117.324C392.41 116.541 391.628 115.758 390.823 114.952C388.579 112.549 388.061 111.461 387.625 108.187C388 105 388 105 390 102.062C393.374 99.7427 394.952 99.7358 398.924 100.367Z" fill="#FDAB76"></path><path d="M122 312C124.469 315.408 124.332 318.899 124.375 323C124.403 324.217 124.432 325.434 124.461 326.688C124 330 124 330 122.16 332.379C119.353 334.486 117.504 334.929 114 335C109.435 332.87 109.435 332.87 108 330C107.823 327.525 107.723 325.103 107.688 322.625C107.659 321.952 107.63 321.279 107.6 320.586C107.556 317.166 107.74 315.343 109.832 312.586C114.284 309.329 117.029 310.102 122 312Z" fill="#FDAB76"></path><path d="M122 275C124.469 278.408 124.332 281.899 124.375 286C124.403 287.217 124.432 288.434 124.461 289.688C124 293 124 293 122.16 295.379C119.353 297.486 117.504 297.929 114 298C109.435 295.87 109.435 295.87 108 293C107.823 290.525 107.723 288.103 107.688 285.625C107.659 284.952 107.63 284.279 107.6 283.586C107.556 280.166 107.74 278.343 109.832 275.586C114.284 272.329 117.029 273.102 122 275Z" fill="#FDAB76"></path><path d="M122 238C124.469 241.408 124.332 244.899 124.375 249C124.403 250.217 124.432 251.434 124.461 252.688C124 256 124 256 122.16 258.379C119.353 260.486 117.504 260.929 114 261C109.435 258.87 109.435 258.87 108 256C107.823 253.525 107.723 251.103 107.688 248.625C107.659 247.952 107.63 247.279 107.6 246.586C107.556 243.166 107.74 241.343 109.832 238.586C114.284 235.329 117.029 236.102 122 238Z" fill="#FDAB76"></path><path d="M122 201C124.469 204.408 124.332 207.899 124.375 212C124.403 213.217 124.432 214.434 124.461 215.688C124 219 124 219 122.16 221.379C119.353 223.486 117.504 223.929 114 224C109.435 221.87 109.435 221.87 108 219C107.823 216.525 107.723 214.103 107.688 211.625C107.659 210.952 107.63 210.279 107.6 209.586C107.556 206.166 107.74 204.343 109.832 201.586C114.284 198.329 117.029 199.102 122 201Z" fill="#FDAB76"></path><path d="M155 313C156.501 316.003 156.225 319.084 156.25 322.375C156.271 323.048 156.291 323.721 156.312 324.414C156.337 327.503 156.172 329.679 154.699 332.422C152.027 334.904 149.556 334.875 146 335C143.375 334.22 142.395 333.613 140.918 331.32C139.73 328.317 139.662 325.788 139.625 322.563C139.597 321.45 139.568 320.338 139.539 319.192C140.093 315.358 141.331 313.749 144 311C147.962 308.814 151.268 311.099 155 313Z" fill="#FDAB76"></path><path d="M155 276C156.501 279.003 156.225 282.084 156.25 285.375C156.271 286.048 156.291 286.721 156.312 287.414C156.337 290.503 156.172 292.679 154.699 295.422C152.027 297.904 149.556 297.875 146 298C143.375 297.22 142.395 296.613 140.918 294.32C139.73 291.317 139.662 288.788 139.625 285.563C139.597 284.45 139.568 283.338 139.539 282.192C140.093 278.358 141.331 276.749 144 274C147.962 271.814 151.268 274.099 155 276Z" fill="#FDAB76"></path><path d="M155 239C156.501 242.003 156.225 245.084 156.25 248.375C156.271 249.048 156.291 249.721 156.312 250.414C156.337 253.503 156.172 255.679 154.699 258.422C152.027 260.904 149.556 260.875 146 261C143.375 260.22 142.395 259.613 140.918 257.32C139.73 254.317 139.662 251.788 139.625 248.563C139.597 247.45 139.568 246.338 139.539 245.192C140.093 241.358 141.331 239.749 144 237C147.962 234.814 151.268 237.099 155 239Z" fill="#FDAB76"></path><path d="M155 202C156.501 205.003 156.225 208.084 156.25 211.375C156.271 212.048 156.291 212.721 156.312 213.414C156.337 216.503 156.172 218.679 154.699 221.422C152.027 223.904 149.556 223.875 146 224C143.375 223.22 142.395 222.613 140.918 220.32C139.73 217.317 139.662 214.788 139.625 211.563C139.597 210.45 139.568 209.338 139.539 208.192C140.093 204.358 141.331 202.749 144 200C147.962 197.814 151.268 200.099 155 202Z" fill="#FDAB76"></path><path d="M89 312C92.2333 315.272 92.4323 317.93 92.4375 322.438C92.4665 324.106 92.4665 324.106 92.4961 325.809C91.8998 329.645 90.7244 331.281 88 334C84.3103 335.256 82.7362 335.344 79.1875 333.688C77 332 77 332 76 330C75.8232 327.525 75.7227 325.103 75.6875 322.625C75.6585 321.952 75.6295 321.279 75.5997 320.586C75.5559 317.166 75.7398 315.343 77.8321 312.586C82.0545 309.497 84.3636 309.972 89 312Z" fill="#FDAB76"></path><path d="M89 275C92.2333 278.272 92.4323 280.93 92.4375 285.438C92.4665 287.106 92.4665 287.106 92.4961 288.809C91.8998 292.645 90.7244 294.281 88 297C84.3103 298.256 82.7362 298.344 79.1875 296.688C77 295 77 295 76 293C75.8232 290.525 75.7227 288.103 75.6875 285.625C75.6585 284.952 75.6295 284.279 75.5997 283.586C75.5559 280.166 75.7398 278.343 77.8321 275.586C82.0545 272.497 84.3636 272.972 89 275Z" fill="#FDAB76"></path><path d="M89 238C92.2333 241.272 92.4323 243.93 92.4375 248.438C92.4665 250.106 92.4665 250.106 92.4961 251.809C91.8998 255.645 90.7244 257.281 88 260C84.3103 261.256 82.7362 261.344 79.1875 259.688C77 258 77 258 76 256C75.8232 253.525 75.7227 251.103 75.6875 248.625C75.6585 247.952 75.6295 247.279 75.5997 246.586C75.5559 243.166 75.7398 241.343 77.8321 238.586C82.0545 235.497 84.3636 235.972 89 238Z" fill="#FDAB76"></path><path d="M89 201C92.2333 204.272 92.4323 206.93 92.4375 211.438C92.4665 213.106 92.4665 213.106 92.4961 214.809C91.8998 218.645 90.7244 220.281 88 223C84.3103 224.256 82.7362 224.344 79.1875 222.688C77 221 77 221 76 219C75.8232 216.525 75.7227 214.103 75.6875 211.625C75.6585 210.952 75.6295 210.279 75.5997 209.586C75.5559 206.166 75.7398 204.343 77.8321 201.586C82.0545 198.497 84.3636 198.972 89 201Z" fill="#FDAB76"></path></g><defs><clipPath id="clip0_10123_150"><rect width="512" height="512" fill="white"></rect></clipPath></defs></svg> 