<?xml version="1.0" encoding="UTF-8"?> <svg xmlns="http://www.w3.org/2000/svg" width="512" height="512" viewBox="0 0 512 512" fill="none"><path d="M24.4023 31.4922C25.2771 31.4809 26.1519 31.4696 27.0532 31.458C28.4809 31.4702 28.4809 31.4702 29.9375 31.4825C30.946 31.4755 31.9546 31.4685 32.9937 31.4613C36.3294 31.4437 39.6643 31.4554 43 31.4689C45.3164 31.4662 47.6328 31.4623 49.9492 31.4573C54.8048 31.4514 59.6601 31.46 64.5156 31.4786C70.7436 31.5014 76.971 31.4883 83.199 31.4643C87.9825 31.4499 92.7658 31.4545 97.5493 31.4649C99.8459 31.4675 102.142 31.4642 104.439 31.4549C107.647 31.4448 110.854 31.4602 114.062 31.4825C115.49 31.4704 115.49 31.4704 116.947 31.458C118.259 31.4749 118.259 31.4749 119.598 31.4922C120.356 31.4937 121.114 31.4952 121.895 31.4968C124 32.0001 124 32.0001 128 36.0001C128 42.6001 128 49.2001 128 56.0001C141.2 56.0001 154.4 56.0001 168 56.0001C168 49.4001 168 42.8001 168 36.0001C172.501 31.499 172.501 31.499 176.062 31.4825C177.244 31.4636 177.244 31.4636 178.449 31.4443C179.291 31.4524 180.133 31.4605 181 31.4689C182.309 31.4631 182.309 31.4631 183.645 31.4573C185.487 31.4546 187.329 31.4619 189.172 31.4786C191.99 31.5 194.806 31.4788 197.625 31.4532C199.417 31.4559 201.208 31.461 203 31.4689C203.842 31.4608 204.684 31.4527 205.551 31.4443C209.151 31.502 211.394 31.6398 214.527 33.5021C216.639 37.0832 216.592 40.4569 216.566 44.5001C216.573 45.3316 216.579 46.1632 216.585 47.0199C216.592 48.7817 216.589 50.5435 216.576 52.3053C216.563 54.964 216.596 57.6191 216.635 60.2775C216.699 74.0241 214.435 84.55 204.613 94.8009C197.969 100.393 189.939 104.132 181.243 104.114C180.046 104.114 178.848 104.113 177.615 104.113C176.356 104.108 175.097 104.103 173.801 104.098C172.644 104.097 171.487 104.096 170.295 104.095C165.968 104.089 161.64 104.076 157.312 104.063C147.639 104.042 137.966 104.021 128 104C128 135.68 128 167.36 128 200C133.28 200 138.56 200 144 200C143.969 197.305 143.969 197.305 143.937 194.556C143.872 188.617 143.826 182.678 143.793 176.738C143.772 173.138 143.744 169.537 143.698 165.937C143.655 162.461 143.631 158.986 143.62 155.511C143.61 153.541 143.578 151.571 143.547 149.601C143.546 147.8 143.546 147.8 143.546 145.962C143.537 144.905 143.528 143.848 143.519 142.759C144.128 139.266 145.183 138.101 148 136C149.973 135.492 149.973 135.492 152.062 135.483C152.85 135.47 153.638 135.457 154.449 135.444C155.291 135.452 156.133 135.461 157 135.469C158.309 135.463 158.309 135.463 159.645 135.457C161.487 135.455 163.329 135.462 165.172 135.479C167.99 135.5 170.806 135.479 173.625 135.453C175.417 135.456 177.208 135.461 179 135.469C180.263 135.457 180.263 135.457 181.551 135.444C185.358 135.505 187.373 135.555 190.538 137.804C192.671 141.008 192.432 144.048 192.25 147.75C192.232 148.448 192.214 149.145 192.195 149.863C192.148 151.576 192.077 153.288 192 155C192.99 154.505 193.98 154.01 195 153.5C203.026 150.515 213.56 150.696 221.562 153.625C230.158 157.75 235.223 163.909 239.129 172.477C240.437 177.767 240.208 182.95 240.125 188.375C240.116 189.493 240.107 190.61 240.098 191.762C240.074 194.508 240.041 197.254 240 200C240.585 199.979 241.17 199.958 241.772 199.937C244.431 199.853 247.09 199.801 249.75 199.75C250.67 199.717 251.591 199.683 252.539 199.649C253.429 199.636 254.318 199.623 255.234 199.609C256.051 199.589 256.868 199.568 257.71 199.546C261.049 200.208 262.075 201.185 264 204C264.585 207.002 264.561 209.949 264.531 213C264.535 213.873 264.539 214.746 264.543 215.645C264.546 217.487 264.538 219.33 264.521 221.172C264.5 223.991 264.521 226.807 264.547 229.625C264.544 231.417 264.539 233.208 264.531 235C264.539 235.842 264.547 236.684 264.556 237.551C264.537 238.732 264.537 238.732 264.518 239.938C264.514 240.627 264.511 241.317 264.508 242.027C263.759 244.938 262.297 246.105 260 248C257.446 248.492 257.446 248.492 254.508 248.481C252.834 248.489 252.834 248.489 251.125 248.498C249.906 248.483 248.686 248.469 247.429 248.454C246.141 248.455 244.853 248.455 243.526 248.456C239.997 248.457 236.468 248.434 232.94 248.406C229.251 248.381 225.562 248.378 221.873 248.374C214.889 248.361 207.905 248.328 200.921 248.288C191.483 248.235 182.045 248.214 172.606 248.19C157.737 248.153 142.869 248.073 128 248C128 277.04 128 306.08 128 336C139.792 335.954 151.585 335.907 163.734 335.859C171.19 335.839 178.646 335.82 186.102 335.805C197.944 335.781 209.787 335.753 221.63 335.698C230.254 335.659 238.878 335.633 247.502 335.624C252.07 335.619 256.637 335.606 261.205 335.577C265.503 335.55 269.8 335.542 274.098 335.548C275.676 335.547 277.255 335.539 278.834 335.523C280.987 335.503 283.139 335.508 285.293 335.519C286.499 335.515 287.704 335.512 288.947 335.508C292.616 336.099 293.797 337.056 296 340C297.523 349.764 295.538 360.407 294.312 370.188C294.224 370.908 294.135 371.629 294.044 372.372C292.613 383.855 290.734 395.017 287 406C286.672 406.975 286.672 406.975 286.337 407.969C283.759 415.407 280.433 422.372 276.625 429.25C276.286 429.863 275.948 430.477 275.599 431.108C272.139 437.133 268.156 442.286 264 448C279.84 448 295.68 448 312 448C311.954 441.405 311.907 434.81 311.859 428.016C311.839 423.841 311.82 419.667 311.805 415.492C311.781 408.864 311.752 402.236 311.698 395.609C311.655 390.266 311.631 384.923 311.62 379.58C311.613 377.541 311.599 375.501 311.577 373.461C311.548 370.607 311.544 367.754 311.546 364.9C311.532 364.054 311.517 363.208 311.502 362.336C311.543 356.608 311.543 356.608 313.902 353.472C316.237 351.833 317.293 351.524 320.109 351.609C321.241 351.629 321.241 351.629 322.395 351.649C323.56 351.699 323.56 351.699 324.75 351.75C325.543 351.768 326.336 351.786 327.152 351.805C329.102 351.852 331.051 351.924 333 352C332.437 351.161 332.437 351.161 331.863 350.305C322.879 336.229 319.643 321.644 319.625 305.188C319.601 303.974 319.576 302.76 319.551 301.51C319.547 300.345 319.543 299.181 319.539 297.981C319.531 296.928 319.523 295.875 319.514 294.79C320.134 291.232 321.21 290.241 324 288C326.538 287.508 326.538 287.508 329.454 287.519C330.562 287.514 331.67 287.508 332.811 287.502C334.627 287.524 334.627 287.524 336.479 287.546C337.758 287.545 339.036 287.545 340.353 287.544C343.855 287.543 347.356 287.567 350.858 287.595C354.519 287.62 358.18 287.622 361.841 287.627C368.772 287.639 375.702 287.672 382.633 287.712C390.524 287.757 398.415 287.779 406.307 287.799C422.538 287.841 438.769 287.911 455 288C454.931 283.07 454.843 278.141 454.738 273.211C454.704 271.534 454.676 269.857 454.654 268.18C454.62 265.769 454.568 263.36 454.512 260.949C454.502 259.824 454.502 259.824 454.492 258.676C454.381 254.59 454.381 254.59 452.62 250.992C450.968 249.763 450.968 249.763 448.562 250.188C446.162 250.949 444.119 251.638 442 253C440.663 257.01 440.725 260.883 440.574 265.09C439.874 268.641 438.874 269.849 436 272C433.253 272.73 430.778 272.552 428 272C425.5 270.438 425.5 270.438 424 268C423.75 264.25 423.75 264.25 424 261C423.354 261.212 422.708 261.423 422.042 261.641C414.677 263.873 407.924 264.51 400.25 264.438C399.105 264.429 397.961 264.42 396.782 264.41C378.461 264.036 360.655 257.484 347 245C346.108 244.2 345.216 243.399 344.297 242.574C330.304 229.365 320.336 210.67 319.637 191.159C319.565 187.495 319.557 183.833 319.566 180.168C319.562 178.562 319.557 176.956 319.551 175.35C319.542 172.001 319.544 168.652 319.554 165.303C319.565 161.053 319.545 156.805 319.516 152.556C319.498 149.243 319.498 145.93 319.504 142.617C319.504 141.053 319.498 139.488 319.485 137.924C319.392 124.356 321.331 111.785 327.812 99.6251C328.157 98.9594 328.501 98.2937 328.855 97.6078C331.695 92.2581 335.028 87.5746 339 83.0001C339.632 82.1377 339.632 82.1377 340.277 81.2579C347.859 71.2565 360.503 64.3591 372 60.0001C373.067 59.5876 374.135 59.1751 375.234 58.7501C395.317 52.2074 417.644 54.7059 436.375 63.8126C442.454 66.9421 447.934 70.3691 453 75.0001C453.892 75.8006 454.784 76.6011 455.703 77.4259C469.696 90.6351 479.664 109.33 480.363 128.841C480.435 132.505 480.443 136.168 480.434 139.832C480.438 141.438 480.443 143.044 480.449 144.65C480.458 147.999 480.456 151.348 480.446 154.698C480.435 158.947 480.455 163.195 480.484 167.445C480.502 170.757 480.502 174.07 480.496 177.383C480.496 178.947 480.502 180.512 480.515 182.076C480.609 195.708 478.662 208.262 472.062 220.438C471.718 221.101 471.373 221.764 471.018 222.447C468.565 227.11 465.924 231.615 463 236C463.482 236.52 463.964 237.039 464.461 237.574C470.08 243.778 472.337 247.408 472 256C472.82 255.954 473.64 255.907 474.484 255.859C475.562 255.823 476.64 255.787 477.75 255.75C478.817 255.704 479.885 255.657 480.984 255.609C484 256 484 256 486.359 257.766C488.09 260.123 488.545 261.125 488.5 264C488.515 264.99 488.515 264.99 488.531 266C487.739 268.982 486.453 270.164 484 272C479.934 272.527 476.119 272.179 472 272C472 277.28 472 282.56 472 288C473.98 288.33 475.96 288.66 478 289C481.214 293.821 480.383 299.079 480.375 304.75C480.373 305.973 480.372 307.195 480.37 308.455C480.247 317.582 479.301 325.425 476 334C475.515 335.276 475.515 335.276 475.02 336.578C472.787 341.937 469.897 346.977 467 352C468.181 351.954 469.362 351.907 470.578 351.859C472.135 351.822 473.693 351.786 475.25 351.75C476.416 351.7 476.416 351.7 477.605 351.649C478.36 351.636 479.114 351.623 479.891 351.609C480.582 351.589 481.273 351.568 481.985 351.546C485.088 352.245 486.088 353.459 488 356C488.583 358.965 488.505 361.886 488.454 364.9C488.455 365.797 488.455 366.695 488.456 367.62C488.453 370.586 488.422 373.55 488.391 376.516C488.383 378.573 488.377 380.63 488.373 382.687C488.358 388.099 488.319 393.51 488.275 398.922C488.234 404.446 488.215 409.969 488.195 415.492C488.152 426.328 488.084 437.164 488 448C488.949 448.103 489.897 448.206 490.875 448.313C494 449 494 449 496 452C496.221 454.999 496.328 457.902 496.336 460.902C496.343 461.777 496.349 462.651 496.356 463.551C496.366 465.4 496.371 467.248 496.371 469.097C496.375 471.924 496.411 474.749 496.449 477.576C496.455 479.373 496.459 481.169 496.461 482.965C496.482 484.232 496.482 484.232 496.504 485.525C496.498 486.316 496.492 487.107 496.486 487.922C496.489 488.614 496.492 489.307 496.494 490.021C495.742 493.031 494.445 494.104 492 496C489.249 496.392 486.898 496.538 484.148 496.503C482.947 496.512 482.947 496.512 481.722 496.521C479.024 496.536 476.326 496.522 473.627 496.508C471.679 496.513 469.732 496.519 467.784 496.527C462.42 496.544 457.055 496.535 451.69 496.523C445.91 496.514 440.129 496.528 434.348 496.539C423.019 496.557 411.69 496.553 400.36 496.541C391.156 496.532 381.951 496.531 372.746 496.535C371.438 496.536 370.13 496.537 368.782 496.537C366.124 496.539 363.467 496.54 360.81 496.541C336.581 496.553 312.353 496.541 288.125 496.52C265.997 496.501 243.87 496.502 221.742 496.522C196.894 496.543 172.046 496.551 147.197 496.539C144.549 496.538 141.902 496.537 139.254 496.535C137.299 496.534 137.299 496.534 135.305 496.534C126.108 496.53 116.911 496.536 107.713 496.545C96.51 496.556 85.3069 496.554 74.1038 496.532C68.3839 496.522 62.6641 496.518 56.9442 496.531C51.7135 496.543 46.4831 496.536 41.2524 496.515C39.3548 496.51 37.4571 496.513 35.5595 496.522C32.99 496.534 30.4218 496.522 27.8524 496.503C26.734 496.518 26.734 496.518 25.593 496.532C22.1255 496.481 20.3181 496.247 17.541 494.092C15.8448 491.789 15.4954 490.758 15.4824 487.938C15.4635 486.756 15.4635 486.756 15.4442 485.551C15.4523 484.709 15.4604 483.867 15.4688 483C15.4649 482.127 15.4611 481.255 15.4572 480.356C15.4544 478.513 15.4618 476.671 15.4785 474.828C15.4999 472.01 15.4787 469.194 15.4531 466.375C15.4558 464.583 15.4609 462.792 15.4688 461C15.4566 459.737 15.4566 459.737 15.4442 458.449C15.5021 454.836 15.6395 452.603 17.5166 449.462C21.0444 447.385 24.2939 447.503 28.2656 447.609C29.059 447.615 29.8524 447.621 30.6699 447.627C33.1972 447.649 35.7231 447.699 38.25 447.75C39.9661 447.77 41.6823 447.788 43.3984 447.805C47.5995 447.849 51.7995 447.918 56 448C54.9172 446.519 54.9172 446.519 53.8125 445.008C52.8748 443.714 51.9373 442.42 51 441.125C50.523 440.474 50.0461 439.823 49.5547 439.152C46 434.227 46 434.227 46 432C45.2333 432.021 44.4667 432.042 43.6768 432.064C40.2013 432.147 36.7261 432.199 33.25 432.25C32.0434 432.284 30.8369 432.317 29.5938 432.352C28.4336 432.365 27.2734 432.377 26.0781 432.391C25.0098 432.412 23.9415 432.433 22.8408 432.454C19.1974 431.872 18.2488 430.892 16 428C15.4986 424.994 15.4986 424.994 15.4966 421.397C15.4908 420.732 15.485 420.067 15.479 419.381C15.4644 417.142 15.4783 414.904 15.4921 412.664C15.4875 411.047 15.4811 409.429 15.4732 407.812C15.4564 403.359 15.4647 398.906 15.4771 394.454C15.4861 389.655 15.4722 384.856 15.4612 380.057C15.4434 370.652 15.4472 361.248 15.4588 351.844C15.4679 344.203 15.4691 336.562 15.4647 328.921C15.4641 327.835 15.4635 326.749 15.4629 325.629C15.4616 323.423 15.4603 321.216 15.459 319.01C15.4476 298.305 15.4607 277.6 15.4822 256.895C15.5001 239.118 15.497 221.34 15.4785 203.563C15.4571 182.933 15.4487 162.304 15.461 141.675C15.4622 139.476 15.4635 137.278 15.4647 135.079C15.4654 133.997 15.466 132.916 15.4666 131.801C15.4701 124.167 15.4642 116.532 15.4548 108.898C15.4436 99.5975 15.4466 90.2976 15.4679 80.9975C15.4785 76.2497 15.4825 71.5021 15.4693 66.7543C15.4575 62.4117 15.4639 58.0696 15.4853 53.7271C15.4897 52.1525 15.4874 50.5778 15.4778 49.0032C15.4657 46.8693 15.478 44.737 15.4966 42.6031C15.4973 41.416 15.4979 40.2289 15.4986 39.0058C16.3615 33.8329 19.2523 31.5024 24.4023 31.4922ZM32 48.0001C32 169.44 32 290.88 32 416C37.28 416 42.56 416 48 416C48 294.56 48 173.12 48 48.0001C42.72 48.0001 37.44 48.0001 32 48.0001ZM64 48.0001C64 169.44 64 290.88 64 416C69.28 416 74.56 416 80 416C80 294.56 80 173.12 80 48.0001C74.72 48.0001 69.44 48.0001 64 48.0001ZM96 48.0001C96 169.44 96 290.88 96 416C101.28 416 106.56 416 112 416C112 294.56 112 173.12 112 48.0001C106.72 48.0001 101.44 48.0001 96 48.0001ZM184 48.0001C183.963 49.4091 183.925 50.818 183.887 52.2697C183.821 54.1173 183.755 55.965 183.688 57.8126C183.665 58.7414 183.642 59.6702 183.619 60.6271C183.584 61.5198 183.548 62.4124 183.512 63.3322C183.486 64.1543 183.459 64.9765 183.432 65.8236C182.891 68.5509 182.184 69.3052 180 71.0001C177.665 71.3988 177.665 71.3988 174.886 71.4325C173.845 71.4523 172.804 71.4721 171.732 71.4925C170.049 71.5021 170.049 71.5021 168.332 71.5118C167.182 71.5298 166.032 71.5477 164.847 71.5662C161.169 71.6205 157.491 71.6543 153.812 71.6876C151.321 71.7208 148.829 71.7553 146.338 71.7911C140.225 71.8762 134.113 71.943 128 72.0001C128 77.2801 128 82.5601 128 88.0001C134.956 88.0498 141.912 88.086 148.868 88.11C151.232 88.12 153.595 88.1336 155.959 88.151C159.367 88.1754 162.775 88.1866 166.184 88.1954C167.754 88.2109 167.754 88.2109 169.357 88.2267C178.346 88.2281 186.142 87.5982 193.273 81.7736C200.089 74.7727 200.158 65.8439 200.062 56.6251C200.058 55.7937 200.053 54.9622 200.049 54.1056C200.037 52.0704 200.019 50.0353 200 48.0001C194.72 48.0001 189.44 48.0001 184 48.0001ZM354.25 91.1876C338.984 107.393 335.662 126.48 336 148C342.182 146.372 347.311 143.058 352.75 139.813C354.911 138.537 357.073 137.262 359.234 135.988C360.908 135 360.908 135 362.615 133.991C368.056 130.791 373.528 127.646 379 124.5C388.367 119.104 397.72 113.685 407.051 108.226C412.291 105.16 417.539 102.11 422.801 99.0822C423.911 98.4409 425.022 97.7997 426.166 97.139C428.308 95.9022 430.453 94.6695 432.6 93.4413C433.556 92.8884 434.511 92.3354 435.496 91.7657C436.344 91.2788 437.191 90.7919 438.064 90.2902C440.137 89.1402 440.137 89.1402 441 87.0001C413.456 67.2462 379.939 67.2554 354.25 91.1876ZM452 101C451.023 101.564 451.023 101.564 450.026 102.139C448.043 103.283 446.06 104.427 444.078 105.571C441.743 106.917 439.409 108.264 437.075 109.611C431.16 113.024 425.245 116.436 419.328 119.844C407.887 126.436 396.462 133.056 385.061 139.718C368.76 149.236 352.406 158.664 336 168C336 171.96 336 175.92 336 180C342.182 178.372 347.311 175.058 352.75 171.813C354.911 170.537 357.073 169.262 359.234 167.988C360.908 167 360.908 167 362.615 165.991C368.056 162.791 373.528 159.646 379 156.5C388.333 151.126 397.644 145.716 406.941 140.281C414.464 135.886 422.011 131.533 429.562 127.188C438.768 121.889 447.928 116.524 457 111C456.559 106.148 455.546 104.263 452 101ZM455.062 131.063C447.552 135.514 440.004 139.895 432.438 144.25C423.943 149.141 415.462 154.054 407 159C398.722 163.837 390.43 168.649 382.125 173.438C381.061 174.052 379.996 174.665 378.9 175.298C373.787 178.246 368.672 181.19 363.552 184.125C361.153 185.5 358.755 186.878 356.357 188.256C354.664 189.228 352.969 190.197 351.274 191.166C349.735 192.051 349.735 192.051 348.164 192.953C347.261 193.47 346.358 193.988 345.428 194.521C343.169 195.897 341.083 197.373 339 199C339.462 204.539 340.744 209.397 344 214C346.924 215.349 346.924 215.349 349.346 213.959C350.267 213.414 351.188 212.87 352.137 212.309C353.176 211.701 354.216 211.093 355.287 210.467C356.409 209.797 357.531 209.128 358.688 208.438C359.863 207.746 361.04 207.055 362.217 206.365C364.639 204.944 367.058 203.517 369.474 202.086C374.634 199.03 379.818 196.018 385 193C386.982 191.843 388.964 190.685 390.945 189.527C397.244 185.853 403.558 182.205 409.875 178.563C410.947 177.944 412.02 177.326 413.124 176.689C419.853 172.811 426.585 168.937 433.319 165.067C435.538 163.788 437.754 162.503 439.966 161.212C444.585 158.518 449.194 155.864 453.965 153.445C460.805 150.236 460.805 150.236 464.93 144.328C465.003 141.373 464.627 138.884 464 136C463.82 134.272 463.652 132.543 463.5 130.813C463.335 129.554 463.17 128.296 463 127C460.425 127 457.291 129.733 455.062 131.063ZM160 152C160 167.84 160 183.68 160 200C165.28 200 170.56 200 176 200C176 184.16 176 168.32 176 152C170.72 152 165.44 152 160 152ZM455 171.063C453.45 171.987 451.899 172.91 450.348 173.832C449.068 174.593 449.068 174.593 447.762 175.37C442.678 178.371 437.555 181.307 432.438 184.25C422.961 189.707 413.505 195.196 404.065 200.716C397.633 204.474 391.183 208.201 384.724 211.914C375.059 217.47 365.418 223.033 356 229C367.007 240.297 380.633 246.985 396.516 247.292C409.771 247.386 422.342 246.382 433 237.5C436 235 436 235 438.938 233.625C450.054 227.727 457.341 214.492 461 202.813C464.44 190.966 464.129 179.214 464 167C460.583 167 457.862 169.334 455 171.063ZM197 173C190.246 181.58 192 188.526 192 200C202.56 200 213.12 200 224 200C225.018 185.862 225.018 185.862 219.535 173.387C214.824 169.298 211.588 168.644 205.539 168.723C201.775 169.134 199.782 170.483 197 173ZM128 216C128 221.28 128 226.56 128 232C167.6 232 207.2 232 248 232C248 226.72 248 221.44 248 216C208.4 216 168.8 216 128 216ZM336 304C337.998 321.979 341.004 337.733 354.201 350.701C357.454 353.05 360.754 352.844 364.648 352.792C365.496 352.804 366.344 352.817 367.218 352.829C370.009 352.86 372.798 352.848 375.59 352.832C377.537 352.839 379.485 352.847 381.433 352.857C385.511 352.87 389.588 352.861 393.666 352.837C398.883 352.809 404.098 352.839 409.315 352.886C413.336 352.915 417.356 352.911 421.377 352.898C423.3 352.896 425.223 352.904 427.146 352.924C438.732 353.584 438.732 353.584 448.589 348.648C449.955 346.862 449.955 346.862 451 345C452.135 343.389 452.135 343.389 453.293 341.746C460.462 329.226 462.872 318.659 464 304C421.76 304 379.52 304 336 304ZM128 352C127.963 357.452 127.925 362.903 127.887 368.52C127.856 371.97 127.825 375.419 127.791 378.869C127.737 384.347 127.686 389.825 127.654 395.303C127.628 399.719 127.587 404.134 127.537 408.55C127.52 410.236 127.509 411.922 127.502 413.608C127.493 415.967 127.465 418.325 127.432 420.683C127.434 421.383 127.435 422.083 127.437 422.804C127.383 425.545 127.267 427.562 125.821 429.93C123.283 431.421 121.366 431.4 118.427 431.432C117.286 431.452 116.145 431.472 114.97 431.492C113.738 431.499 112.507 431.505 111.238 431.512C109.347 431.539 109.347 431.539 107.417 431.566C104.068 431.611 100.72 431.644 97.371 431.67C93.9523 431.699 90.5338 431.746 87.1152 431.791C80.4103 431.876 73.7053 431.945 67 432C68.7021 435.61 70.7904 438.178 73.5 441.125C74.2941 441.994 75.0881 442.863 75.9062 443.758C78.7197 447.139 78.7197 447.139 82.7197 448.271C83.8861 448.281 85.0525 448.291 86.2542 448.301C86.9029 448.309 87.5516 448.317 88.22 448.326C90.4039 448.35 92.5877 448.36 94.7717 448.37C96.3338 448.384 97.8958 448.399 99.4578 448.415C104.598 448.462 109.738 448.488 114.879 448.512C116.649 448.521 118.419 448.531 120.188 448.54C127.553 448.579 134.918 448.612 142.282 448.631C152.833 448.657 163.382 448.715 173.932 448.816C181.351 448.885 188.77 448.92 196.189 448.928C200.619 448.934 205.048 448.955 209.478 449.013C213.651 449.066 217.821 449.077 221.994 449.055C223.521 449.054 225.048 449.068 226.574 449.1C235.145 449.341 235.145 449.341 242.87 446.043C245.144 443.805 247.093 441.554 249 439C249.483 438.418 249.967 437.835 250.465 437.235C266.315 417.758 274.339 394.405 277.188 369.688C277.272 368.959 277.356 368.23 277.442 367.479C277.991 362.241 278 357.329 278 352C270.74 352 263.48 352 256 352C255.985 353.802 255.971 355.604 255.956 357.46C255.904 363.412 255.839 369.363 255.764 375.314C255.72 378.922 255.68 382.53 255.654 386.139C255.628 389.621 255.587 393.103 255.537 396.585C255.512 398.56 255.502 400.536 255.492 402.512C255.463 404.314 255.463 404.314 255.432 406.152C255.416 407.741 255.416 407.741 255.399 409.362C255 412 255 412 253.904 413.841C250.988 415.616 248.489 415.382 245.098 415.388C244.4 415.394 243.702 415.399 242.983 415.404C240.676 415.417 238.37 415.409 236.062 415.399C234.46 415.401 232.857 415.403 231.254 415.407C227.895 415.412 224.536 415.405 221.177 415.391C216.869 415.374 212.562 415.384 208.254 415.402C204.944 415.413 201.635 415.409 198.325 415.402C196.736 415.4 195.148 415.402 193.56 415.409C191.34 415.417 189.122 415.405 186.902 415.388C185.639 415.386 184.376 415.384 183.074 415.381C180 415 180 415 178.096 413.841C176.537 411.223 176.599 409.192 176.568 406.152C176.548 404.951 176.528 403.75 176.508 402.512C176.501 401.215 176.495 399.918 176.488 398.582C176.471 397.241 176.453 395.9 176.434 394.559C176.386 391.033 176.357 387.507 176.33 383.98C176.301 380.381 176.254 376.781 176.209 373.182C176.121 366.121 176.061 359.061 176 352C160.16 352 144.32 352 128 352ZM192 352C192 357.28 192 362.56 192 368C207.84 368 223.68 368 240 368C240 362.72 240 357.44 240 352C224.16 352 208.32 352 192 352ZM328 368C328 394.4 328 420.8 328 448C333.28 448 338.56 448 344 448C344.015 446.198 344.029 444.396 344.044 442.54C344.096 436.589 344.161 430.638 344.236 424.686C344.28 421.078 344.32 417.47 344.346 413.861C344.372 410.379 344.413 406.897 344.463 403.416C344.488 401.44 344.498 399.464 344.508 397.488C344.527 396.287 344.547 395.086 344.568 393.849C344.579 392.789 344.59 391.73 344.601 390.639C345.066 387.562 345.591 386.878 348 385C349.985 384.623 349.985 384.623 352.289 384.619C353.601 384.606 353.601 384.606 354.94 384.594C356.375 384.603 356.375 384.603 357.84 384.612C359.355 384.604 359.355 384.604 360.9 384.596C364.246 384.583 367.592 384.592 370.938 384.602C373.258 384.6 375.578 384.597 377.898 384.593C382.764 384.589 387.629 384.595 392.495 384.609C398.74 384.626 404.984 384.616 411.229 384.598C416.021 384.587 420.813 384.591 425.605 384.599C427.908 384.601 430.211 384.598 432.514 384.591C435.73 384.584 438.945 384.595 442.16 384.612C443.117 384.606 444.074 384.6 445.06 384.594C445.935 384.602 446.81 384.61 447.711 384.619C448.852 384.621 448.852 384.621 450.015 384.623C452.555 385.106 453.444 385.968 455 388C455.399 390.639 455.399 390.639 455.432 393.849C455.452 395.05 455.472 396.251 455.492 397.488C455.499 398.785 455.505 400.082 455.512 401.418C455.529 402.759 455.547 404.1 455.566 405.441C455.614 408.967 455.643 412.493 455.67 416.02C455.699 419.62 455.746 423.219 455.791 426.818C455.877 433.879 455.943 440.939 456 448C461.28 448 466.56 448 472 448C472 421.6 472 395.2 472 368C424.48 368 376.96 368 328 368ZM192 384C192 389.28 192 394.56 192 400C207.84 400 223.68 400 240 400C240 394.72 240 389.44 240 384C224.16 384 208.32 384 192 384ZM360 400C360 415.84 360 431.68 360 448C386.4 448 412.8 448 440 448C440 432.16 440 416.32 440 400C413.6 400 387.2 400 360 400ZM32 464C32 469.28 32 474.56 32 480C179.84 480 327.68 480 480 480C480 474.72 480 469.44 480 464C332.16 464 184.32 464 32 464Z" fill="#FDAB76"></path></svg> 