<?xml version="1.0" encoding="UTF-8"?> <svg xmlns="http://www.w3.org/2000/svg" id="Layer_1" data-name="Layer 1" viewBox="0 0 512 512"><defs><style> .cls-1 { fill: none; stroke: #fdab76; stroke-miterlimit: 10; stroke-width: 25px; } </style></defs><polyline class="cls-1" points="310.65 96.13 256 63.26 84.48 201.78 84.48 436.57 140.83 436.57"></polyline><polyline class="cls-1" points="369.35 147 431.96 204.13 431.96 436.57 219.09 436.57"></polyline><path class="cls-1" d="M197.57,193.17l-38.74,39.91,52.43,54.78-36.78,40.7-5.48,51.65,50.09-6.26,113.48-111.13s41.48-32.87,13.3-61.04-64.17,20.35-64.17,20.35l-26.74,26.74-57.39-55.7Z"></path><polygon class="cls-1" points="256 337.81 310.65 390.39 355.68 343.43 305.84 289 256 337.81"></polygon><line class="cls-1" x1="254.96" y1="248.87" x2="211.26" y2="287.87"></line><line class="cls-1" x1="281.7" y1="222.13" x2="326.9" y2="268.37"></line></svg> 